<?xml version="1.0" standalone="no"?>
<!DOCTYPE svg PUBLIC "-//W3C//DTD SVG 20010904//EN"
 "http://www.w3.org/TR/2001/REC-SVG-20010904/DTD/svg10.dtd">
<svg version="1.0" xmlns="http://www.w3.org/2000/svg"
 width="50" height="80" viewBox="0 0 1204.000000 1600.000000"
 preserveAspectRatio="xMidYMid meet">

<g transform="translate(0.000000,1600.000000) scale(0.100000,-0.100000)"
fill="#000000" stroke="none">
<path d="M5510 15990 c0 -5 -8 -10 -19 -10 -35 0 -292 -93 -416 -151 -108 -50
-399 -254 -474 -333 -19 -20 -41 -36 -49 -36 -7 0 -39 -26 -70 -57 -30 -32
-66 -65 -79 -74 -12 -8 -50 -53 -84 -98 -50 -69 -69 -87 -109 -104 -27 -11
-53 -30 -58 -42 -6 -12 -45 -64 -87 -114 -42 -51 -92 -121 -110 -156 -19 -35
-54 -90 -78 -122 -55 -73 -97 -151 -97 -181 0 -13 -24 -71 -54 -128 -74 -142
-106 -224 -106 -276 0 -24 -10 -68 -21 -98 -12 -30 -26 -71 -31 -90 -12 -47
-30 -255 -34 -410 -8 -267 -7 -315 4 -337 7 -13 12 -68 12 -139 0 -64 4 -133
9 -153 6 -20 17 -79 26 -131 37 -225 72 -365 115 -465 5 -11 21 -49 36 -85 16
-36 38 -82 51 -102 13 -21 23 -40 23 -43 0 -14 99 -169 162 -253 88 -117 310
-342 429 -434 110 -85 278 -194 343 -223 28 -12 80 -30 116 -39 104 -28 149
-45 235 -86 84 -40 143 -61 235 -80 30 -6 69 -16 86 -21 17 -5 64 -9 104 -9
41 0 99 -6 129 -14 63 -16 132 -29 241 -47 71 -11 154 -30 210 -49 14 -4 45
-13 70 -20 25 -7 104 -32 175 -55 72 -24 146 -46 165 -50 39 -8 150 -62 214
-103 62 -41 166 -123 166 -132 0 -4 -37 -22 -82 -41 -152 -60 -273 -127 -396
-221 -29 -23 -54 -39 -56 -37 -8 8 -9 219 -1 369 6 128 5 158 -6 167 -15 12
-144 57 -196 68 -28 6 -33 4 -37 -17 -5 -24 -19 -659 -20 -883 0 -121 0 -166
2 -395 1 -136 1 -385 0 -515 -1 -66 -1 -158 -2 -205 0 -47 0 -143 0 -215 0
-71 1 -155 3 -185 4 -63 -7 -631 -14 -703 -2 -26 -7 -52 -11 -58 -9 -15 -5
-218 6 -287 6 -31 17 -62 25 -68 11 -8 15 -31 15 -90 0 -93 -15 -131 -24 -63
-3 24 -7 60 -8 79 -2 24 -8 36 -20 38 -16 3 -18 -8 -18 -122 0 -128 -1 -126
45 -164 11 -9 15 -33 15 -92 0 -78 -1 -80 -24 -80 -29 0 -32 -8 -41 -113 -8
-96 1 -158 25 -164 14 -4 18 -22 23 -122 7 -126 -1 -254 -14 -245 -5 3 -9 36
-9 75 0 38 -4 69 -9 69 -17 0 -21 -36 -15 -136 3 -54 5 -121 5 -147 -1 -34 4
-55 19 -74 24 -30 25 -43 5 -43 -18 0 -37 -34 -29 -54 3 -8 14 -18 25 -21 18
-6 19 -19 19 -230 0 -191 -2 -225 -15 -233 -25 -13 -7 -41 36 -54 22 -6 44
-17 50 -25 6 -7 20 -13 30 -13 17 0 19 9 20 93 1 184 8 490 21 897 7 228 13
505 15 615 7 518 11 670 27 940 9 160 19 467 21 683 2 216 7 398 11 404 4 6 9
93 11 192 3 100 5 206 6 236 1 30 0 75 -1 100 -2 25 0 98 4 163 l7 117 31 0
c24 0 66 26 191 120 166 126 198 144 430 245 l140 61 3 37 c2 20 2 37 0 37 -2
0 -44 -16 -94 -36 -49 -20 -110 -45 -136 -55 l-48 -19 3 103 c2 96 1 102 -18
102 -18 0 -20 -8 -23 -72 -2 -51 2 -81 13 -102 8 -17 15 -34 15 -39 0 -5 -24
-22 -52 -37 -83 -45 -204 -127 -311 -210 -64 -50 -104 -75 -114 -71 -14 6 -15
29 -11 188 4 159 7 183 22 192 10 6 56 39 103 74 108 79 188 124 328 184 64
27 112 54 115 64 5 13 18 3 65 -50 33 -37 82 -97 110 -134 28 -37 65 -82 82
-100 21 -22 43 -65 66 -135 19 -56 51 -149 71 -206 l37 -103 1 -217 c1 -264
-6 -313 -69 -496 -71 -203 -187 -406 -296 -517 -61 -63 -66 -66 -227 -184
-210 -154 -324 -224 -364 -224 -36 0 -66 -23 -66 -51 0 -24 4 -28 32 -31 46
-4 47 -30 4 -69 -20 -17 -36 -40 -36 -50 0 -23 -2 -23 55 1 53 23 65 20 65
-16 0 -20 -11 -29 -57 -52 -36 -16 -59 -34 -61 -46 -4 -19 6 -19 71 0 12 4 17
0 17 -13 0 -11 -18 -29 -45 -45 -40 -25 -45 -31 -45 -64 0 -41 -5 -40 90 -5
30 11 82 28 115 38 33 9 79 29 103 43 24 14 51 30 60 35 88 52 358 239 410
284 286 247 466 507 624 901 45 111 48 124 63 265 8 72 19 173 26 225 12 104
6 305 -12 404 -13 67 -43 190 -55 220 -7 18 -3 19 52 12 32 -3 115 -11 184
-17 159 -13 366 -64 640 -156 116 -39 272 -81 425 -114 195 -42 640 -36 803
10 53 16 53 -1 7 -169 -66 -235 -158 -452 -378 -880 -68 -135 -215 -447 -325
-695 -111 -247 -235 -526 -276 -618 -155 -344 -410 -839 -467 -907 -110 -129
-110 -133 -36 -204 152 -147 358 -312 475 -379 178 -102 434 -212 565 -242 39
-9 110 -30 157 -45 99 -33 373 -95 510 -116 52 -7 138 -14 191 -14 62 0 106
-5 123 -14 23 -12 46 -10 187 15 88 15 202 41 252 58 51 17 127 39 170 50 49
12 111 38 165 69 48 27 123 68 167 90 116 58 404 270 511 377 93 92 184 227
184 272 0 54 -36 107 -101 148 -20 13 -51 47 -69 77 -18 29 -63 100 -100 158
-130 203 -314 538 -399 727 -32 70 -117 247 -189 393 -257 522 -375 777 -493
1065 -75 180 -97 223 -220 431 -42 72 -91 158 -108 192 -38 75 -111 257 -111
277 0 7 34 47 76 87 42 40 90 87 108 104 56 55 76 111 83 228 6 101 5 107 -22
163 -38 76 -96 138 -151 159 -38 15 -52 15 -98 5 -63 -14 -135 -57 -163 -97
-23 -33 -43 -107 -43 -158 0 -34 2 -36 31 -36 18 0 51 9 74 21 38 19 44 20 77
6 74 -31 94 -114 44 -185 -40 -58 -82 -85 -130 -84 -29 2 -51 -5 -80 -25 -36
-26 -48 -28 -157 -31 -95 -3 -141 1 -245 22 -71 14 -167 30 -214 36 -132 17
-228 43 -465 124 -121 42 -292 97 -380 122 -88 25 -223 65 -300 89 -77 24
-219 63 -315 86 -162 38 -188 42 -350 46 l-175 5 -62 61 c-35 34 -63 66 -63
72 0 27 -134 133 -265 210 -74 44 -298 155 -311 155 -3 0 -20 6 -37 14 -145
63 -363 136 -405 136 -17 0 -41 4 -54 9 -61 24 -135 41 -178 41 -26 0 -60 4
-76 9 -50 15 -105 29 -219 56 -60 14 -126 30 -145 35 -19 5 -82 21 -140 36
-161 40 -307 84 -367 110 -17 8 -34 14 -37 14 -15 0 -151 70 -226 116 -94 58
-186 147 -278 269 -33 45 -89 111 -125 148 -42 45 -76 93 -101 144 -21 43 -58
110 -82 149 -65 105 -128 281 -174 484 -4 19 -16 62 -25 95 -20 73 -35 226
-42 442 -4 146 -2 174 21 295 15 73 38 169 51 213 13 44 29 107 35 140 6 33
15 69 20 80 4 11 25 63 46 115 38 94 58 133 80 157 7 7 47 70 91 139 81 132
94 147 326 385 144 148 158 160 282 254 155 118 390 244 575 310 l75 27 290
-1 c305 -1 334 3 391 46 39 29 51 29 105 -1 71 -38 127 -48 245 -44 105 3 112
4 193 46 98 49 129 52 207 16 31 -14 57 -24 58 -22 12 19 25 61 21 68 -9 14
-118 21 -180 12 -33 -5 -94 -22 -135 -37 -132 -48 -203 -50 -354 -8 -80 21
-103 44 -69 68 39 27 73 97 73 148 0 41 -3 48 -30 62 -16 8 -37 15 -47 15 -15
0 -14 -2 5 -16 12 -8 22 -23 22 -32 0 -16 -53 -173 -65 -193 -11 -17 -74 -9
-132 18 -68 31 -156 41 -356 42 -112 1 -150 5 -205 22 -64 21 -151 63 -162 79
-9 13 -50 31 -50 21 0 -11 53 -51 68 -51 5 0 12 -7 16 -15 3 -8 12 -15 19 -15
8 0 20 -7 28 -16 7 -8 31 -25 53 -37 35 -18 60 -22 161 -24 183 -3 345 -13
395 -24 95 -22 113 -46 56 -73 -43 -20 -85 -20 -114 0 -21 14 -26 14 -65 -5
-56 -27 -92 -27 -111 1 -15 22 -17 22 -45 5 -40 -24 -78 -21 -130 8 l-44 26
-27 -26 c-16 -15 -43 -27 -70 -31 -38 -5 -48 -3 -64 15 -24 26 -51 27 -98 2
-45 -22 -40 -33 9 -19 38 10 61 0 48 -22 -10 -16 -69 -40 -100 -40 -25 0 -35
23 -14 35 6 4 7 19 4 36 -6 25 -2 31 27 49 18 11 45 23 61 27 15 3 27 9 27 14
0 17 -51 9 -98 -15 -26 -13 -80 -29 -121 -37 -55 -9 -88 -22 -125 -48 -28 -19
-73 -43 -101 -53 -101 -37 -124 -51 -154 -93 -30 -41 -46 -52 -141 -93 -57
-24 -148 -107 -190 -171 -18 -29 -68 -79 -119 -119 -109 -88 -157 -140 -170
-188 -6 -20 -30 -57 -55 -83 -110 -113 -145 -162 -156 -216 -7 -35 -27 -77
-58 -122 -55 -79 -75 -125 -92 -208 -7 -33 -27 -98 -46 -145 -27 -67 -34 -99
-34 -152 0 -88 -28 -121 -71 -82 -24 22 -54 11 -40 -13 7 -12 22 -18 48 -18
44 0 42 9 28 -160 -10 -118 -16 -128 -66 -120 -25 4 -39 3 -39 -4 0 -6 13 -11
29 -11 41 0 63 -32 49 -71 -7 -21 -7 -43 1 -74 6 -24 11 -77 11 -117 0 -67 13
-136 54 -293 8 -33 15 -84 16 -113 0 -39 8 -68 32 -114 17 -34 35 -80 39 -102
11 -63 37 -126 66 -160 31 -37 56 -93 48 -106 -4 -6 -14 -10 -25 -10 -20 0
-90 90 -90 117 0 12 -3 14 -10 7 -11 -11 6 -53 46 -113 21 -31 22 -36 8 -63
-13 -24 -13 -28 0 -28 8 0 26 14 39 30 38 45 54 39 86 -32 21 -47 45 -77 89
-115 65 -57 92 -99 92 -145 0 -18 5 -28 15 -28 24 0 31 -31 10 -46 -26 -19
-11 -30 20 -16 14 7 36 12 48 12 32 0 107 -79 116 -121 5 -27 12 -34 31 -35
40 -1 181 -75 192 -100 8 -18 6 -29 -11 -52 l-21 -29 63 0 c68 -1 165 -14 185
-26 6 -5 12 -20 12 -33 0 -14 3 -24 8 -22 4 2 20 10 35 18 23 11 35 12 70 1
23 -7 54 -15 70 -18 38 -7 52 -36 36 -74 -17 -42 -5 -46 28 -9 l28 32 88 -25
c104 -31 110 -34 104 -57 -9 -36 8 -42 52 -19 36 19 52 21 108 15 83 -9 137
-30 129 -51 -3 -8 -9 -22 -12 -30 -9 -21 12 -19 46 6 30 23 35 23 145 2 34 -7
41 -13 50 -41 11 -39 18 -39 57 -7 37 31 46 31 112 0 52 -25 69 -46 78 -98 5
-30 23 -20 29 15 11 68 21 71 113 29 69 -31 82 -46 92 -110 4 -22 10 -41 14
-41 4 0 12 18 19 41 14 47 30 56 71 39 46 -19 78 -54 90 -99 11 -40 27 -53 34
-28 3 6 7 24 10 40 8 35 35 35 102 3 65 -32 80 -51 91 -116 7 -45 12 -56 29
-58 18 -3 21 1 17 20 -3 14 3 33 14 47 19 23 20 23 54 7 38 -19 65 -50 75 -89
5 -22 2 -29 -20 -38 l-26 -12 25 -23 c20 -18 23 -28 16 -46 -4 -13 -11 -36
-15 -51 l-7 -29 28 27 c15 15 40 31 54 37 25 8 26 11 16 39 -10 24 -9 32 3 39
22 14 25 13 60 -17 44 -36 56 -70 33 -95 -14 -16 -15 -23 -5 -38 25 -40 7
-124 -33 -152 -16 -12 -18 -11 -65 33 -48 43 -145 119 -154 119 -3 0 -44 28
-92 63 -123 89 -191 134 -255 167 -81 42 -299 113 -494 160 -93 23 -180 48
-191 55 -12 8 -30 12 -41 9 -25 -7 -193 13 -268 31 -33 8 -98 23 -144 34 -51
11 -87 25 -93 34 -6 12 -15 14 -31 8 -14 -6 -41 -2 -77 10 -30 10 -69 18 -85
18 -17 1 -39 7 -50 15 -23 16 -176 33 -160 18 6 -5 34 -17 63 -27 38 -12 52
-22 52 -35 0 -10 -5 -20 -11 -22 -8 -3 -8 -10 2 -25 18 -29 9 -36 -35 -27 -47
8 -87 40 -68 53 11 6 3 15 -30 32 -47 26 -56 52 -20 57 24 4 31 22 7 22 -8 0
-25 10 -37 23 -13 12 -34 23 -48 24 -35 2 -129 38 -151 57 -11 9 -19 27 -19
41 0 35 -23 41 -60 15 -29 -21 -30 -23 -15 -40 11 -12 14 -26 9 -44 -13 -54
-106 -21 -177 63 -33 40 -42 71 -32 119 4 20 9 49 12 65 4 19 1 27 -8 27 -20
0 -65 -51 -73 -82 -9 -40 -46 -37 -85 7 -42 48 -47 78 -28 153 21 81 11 109
-22 63 -13 -18 -26 -44 -30 -59 -5 -17 -14 -27 -26 -27 -22 0 -56 44 -55 71 2
69 9 116 20 130 9 10 10 18 3 25 -12 12 -63 -26 -63 -46 0 -8 -10 -20 -22 -26
-19 -10 -25 -8 -45 17 -62 75 -75 109 -70 181 3 38 8 83 12 101 6 26 4 32 -9
32 -14 0 -49 -44 -59 -73 -13 -39 -107 116 -107 176 0 19 9 56 20 82 24 55 26
105 6 105 -27 0 -46 -12 -46 -30 0 -25 -25 -44 -37 -28 -17 23 -61 191 -68
260 -6 63 -5 68 25 109 22 31 30 52 28 74 -3 28 -5 30 -46 30 -55 0 -65 13
-81 103 -11 59 -10 75 3 106 8 20 19 36 25 36 6 0 19 21 31 47 20 46 20 47 2
66 -16 16 -23 17 -41 8 -33 -18 -43 -4 -40 63 2 67 12 96 33 96 8 0 19 12 25
28 6 15 18 37 26 48 14 20 14 23 0 38 -9 9 -32 16 -50 16 -19 0 -37 5 -40 11
-20 31 5 166 33 176 21 9 30 -14 24 -62 -2 -24 -1 -52 2 -62 14 -35 26 10 26
100 0 64 4 94 16 113 24 35 6 74 -33 71 -36 -3 -40 18 -17 94 20 68 38 91 94
119 56 28 57 38 6 52 -25 7 -48 18 -51 26 -3 8 6 44 20 81 51 133 75 162 101
126 13 -17 14 -16 24 9 5 14 14 36 19 49 5 12 22 29 37 37 16 8 34 18 41 23
16 12 5 37 -17 37 -10 0 -28 8 -40 18 l-23 18 43 83 c54 106 84 141 118 141
15 0 38 9 52 20 14 11 39 20 57 20 17 0 34 4 37 9 8 12 -38 41 -64 41 -39 0
-33 28 22 92 29 35 63 73 76 86 31 30 91 54 120 49 17 -3 26 1 32 17 14 37 77
86 110 86 39 0 38 18 0 55 -16 16 -30 34 -30 41 0 17 136 143 167 155 14 5 34
7 43 4 10 -3 33 2 52 11 32 15 37 15 66 0 19 -10 33 -12 37 -6 8 12 -22 58
-46 71 -28 14 -23 36 11 54 17 9 58 33 91 55 74 48 140 61 182 36 31 -17 57
-21 57 -8 0 5 -13 21 -30 37 -16 16 -30 37 -30 47 0 18 10 22 85 33 22 3 57 8
77 11 28 5 47 1 74 -15 20 -12 38 -20 40 -18 3 2 -3 20 -11 41 -20 46 -11 79
28 109 85 63 239 102 366 93 117 -8 244 -30 266 -46 6 -4 37 -22 70 -41 58
-32 64 -34 175 -35 63 0 138 -5 167 -11 40 -8 50 -7 46 3 -8 21 -98 44 -170
44 -48 0 -98 9 -168 31 -55 18 -116 34 -135 37 -19 2 -39 8 -45 12 -5 5 -27
11 -47 15 -21 4 -38 11 -38 16 0 5 -61 9 -135 9 -83 0 -135 -4 -135 -10z
m-130 -506 c0 -9 -7 -22 -16 -29 -13 -9 -14 -16 -5 -33 10 -18 7 -24 -21 -46
-35 -26 -112 -51 -128 -41 -19 12 -10 33 20 47 32 14 41 38 15 38 -29 0 4 40
48 61 53 23 87 25 87 3z m-223 -160 c12 -31 -134 -125 -171 -111 -28 11 -17
34 22 50 20 8 55 29 77 45 46 35 63 39 72 16z m-257 -136 c11 -12 20 -27 20
-33 0 -6 -35 -46 -79 -88 -84 -82 -121 -98 -121 -52 0 14 -4 25 -10 25 -40 0
35 108 105 151 39 25 60 24 85 -3z m-600 -87 c0 -14 -18 -23 -30 -16 -6 4 -8
11 -5 16 8 12 35 12 35 0z m378 -179 c5 -17 -62 -82 -86 -82 -27 0 -35 15 -17
30 8 7 15 24 15 39 0 25 3 27 42 26 24 0 43 -5 46 -13z m-138 -136 c0 -19
-128 -149 -139 -141 -21 13 -10 42 32 86 23 25 50 55 60 68 15 18 21 20 33 11
8 -7 14 -18 14 -24z m-205 -182 c26 -17 32 -43 16 -59 -5 -6 -28 -46 -52 -90
-23 -44 -47 -83 -53 -87 -20 -14 -36 -8 -36 13 0 13 -8 23 -21 26 -18 5 -20
11 -14 41 8 44 27 75 79 130 45 47 47 48 81 26z m-146 -318 c10 -12 5 -30 -23
-89 -20 -41 -36 -78 -36 -83 0 -5 -5 -26 -11 -46 -11 -42 -32 -49 -49 -17 -7
12 -18 18 -26 15 -26 -10 -26 21 2 98 27 78 62 120 90 109 7 -3 17 2 20 11 8
20 18 20 33 2z m-113 -330 c3 -7 -4 -42 -15 -76 -12 -35 -21 -75 -21 -90 0
-25 -16 -50 -32 -50 -4 0 -8 16 -8 35 0 31 -3 35 -25 35 -14 0 -25 6 -25 13 0
22 11 27 33 16 25 -14 38 4 35 48 -1 18 3 38 10 45 6 6 12 18 12 25 0 17 29
17 36 -1z m-76 -38 c0 -7 -4 -19 -9 -27 -11 -17 -25 3 -17 24 7 18 26 20 26 3z
m15 -342 c-9 -85 -13 -96 -37 -96 -20 0 -20 4 -14 73 5 48 13 76 23 84 27 21
35 4 28 -61z m-70 -186 c9 -15 -6 -60 -20 -60 -14 0 -25 22 -25 51 0 20 34 27
45 9z m45 -20 c0 -5 -4 -10 -10 -10 -5 0 -10 5 -10 10 0 6 5 10 10 10 6 0 10
-4 10 -10z m3 -131 c2 -33 -2 -44 -13 -44 -16 0 -27 64 -15 93 10 26 26 -1 28
-49z m20 -205 c4 -49 8 -100 10 -114 1 -17 -3 -25 -13 -25 -11 0 -18 24 -29
101 -15 102 -11 139 12 132 7 -3 15 -37 20 -94z m73 -361 c7 -47 -2 -68 -24
-54 -19 12 -33 81 -21 103 15 29 37 5 45 -49z m77 -232 c18 -31 23 -71 8 -71
-17 0 -51 52 -51 76 0 33 22 30 43 -5z m137 -240 c47 -80 61 -121 41 -121 -11
0 -58 58 -100 124 -19 32 -31 63 -31 85 0 35 0 35 20 16 10 -11 42 -58 70
-104z m180 -233 c43 -49 56 -76 42 -90 -15 -15 -102 70 -102 101 0 31 26 26
60 -11z m373 -716 c38 -22 45 -44 15 -50 -24 -5 -126 37 -132 55 -4 8 -2 21 4
28 12 15 53 3 113 -33z m448 -137 c31 -6 61 -15 68 -19 17 -11 3 -26 -24 -26
-13 0 -27 -4 -30 -10 -4 -6 6 -10 22 -10 15 0 34 -4 42 -9 20 -13 6 -41 -20
-41 -41 0 -129 33 -134 50 -3 10 -14 25 -25 35 -11 10 -20 24 -20 31 0 15 28
24 50 17 8 -3 40 -11 71 -18z m193 -36 c118 -31 146 -42 146 -55 0 -19 -27
-29 -43 -16 -6 5 -34 12 -62 16 -71 10 -105 25 -105 47 0 22 8 23 64 8z m340
-77 c21 -6 45 -17 53 -25 13 -13 11 -15 -12 -21 -20 -5 -25 -11 -20 -26 6 -19
1 -20 -64 -20 -50 0 -74 4 -85 16 -20 19 -12 35 17 33 12 -1 31 -1 42 0 17 1
18 3 5 11 -8 5 -25 10 -37 10 -25 0 -38 15 -27 31 7 12 65 8 128 -9z m-236
-11 c9 -5 25 -12 35 -15 10 -3 15 -10 12 -16 -14 -23 -135 0 -135 25 0 17 59
21 88 6z m480 -35 c71 -15 93 -29 75 -47 -9 -9 -27 -9 -70 -1 -90 17 -117 24
-130 35 -38 29 19 35 125 13z m-50 -55 c9 -5 25 -12 35 -15 10 -3 15 -11 11
-17 -4 -8 -27 -10 -64 -6 -62 5 -104 22 -95 38 8 12 90 12 113 0z m280 -10
c70 -21 92 -36 92 -59 0 -12 -10 -14 -52 -10 -29 3 -45 3 -35 1 18 -5 23 -28
7 -38 -17 -10 -150 36 -150 52 0 12 9 14 51 8 37 -5 50 -4 45 4 -4 6 -15 11
-25 11 -20 0 -54 33 -44 43 11 12 45 8 111 -12z m209 -82 c26 -11 57 -28 68
-38 11 -10 38 -22 59 -26 57 -10 122 -43 141 -71 8 -13 24 -24 34 -24 11 0 34
-12 52 -27 18 -16 54 -39 81 -53 50 -26 145 -104 188 -154 14 -16 40 -43 59
-60 88 -81 121 -118 127 -143 4 -15 18 -36 30 -46 13 -9 36 -41 52 -70 44 -77
94 -168 111 -202 15 -28 16 -28 19 -8 2 12 -2 31 -7 42 -14 25 -14 78 -1 86
16 10 41 -15 58 -55 29 -69 53 -190 38 -190 -2 0 -11 -3 -19 -6 -9 -3 -16 3
-20 15 -3 12 -10 21 -15 21 -14 0 -9 -131 7 -158 7 -13 17 -85 22 -160 5 -76
11 -155 14 -178 4 -28 1 -45 -7 -52 -28 -23 -35 4 -43 163 -4 88 -11 168 -16
177 -5 9 -9 32 -9 52 0 19 -4 37 -9 41 -5 3 -15 31 -22 63 -6 31 -20 80 -31
107 -11 28 -24 61 -29 74 -8 20 -12 21 -25 10 -13 -10 -17 -10 -25 2 -13 20
-11 29 6 29 8 0 15 5 15 11 0 16 -38 79 -68 111 -13 14 -28 41 -32 60 l-8 33
-1 -32 c-1 -20 -6 -33 -14 -33 -16 0 -48 35 -67 74 -14 26 -80 88 -204 189
-44 36 -52 57 -21 57 8 0 42 -29 77 -65 35 -36 71 -65 80 -65 26 0 10 34 -25
55 -18 10 -61 47 -97 81 -42 40 -92 75 -140 98 -41 20 -86 48 -100 61 -14 14
-33 25 -41 25 -7 0 -30 10 -49 22 -19 12 -51 24 -70 27 -29 5 -36 11 -38 34
-4 30 -23 35 -43 11 -15 -19 -73 -13 -120 12 -32 16 -37 29 -15 37 9 3 12 15
9 31 -7 33 16 34 84 5z m-331 -275 c7 -50 -1 -167 -13 -187 -5 -8 -10 -3 -14
13 -9 32 -11 183 -3 204 11 29 23 17 30 -30z m1229 -24 c18 -34 19 -56 4 -65
-21 -14 -76 73 -65 102 8 20 42 -1 61 -37z m2932 -9 c35 -22 84 -89 101 -140
16 -46 15 -114 -2 -156 -37 -87 -184 -265 -220 -265 -9 0 -23 12 -32 26 l-17
26 61 54 c80 72 128 163 118 226 -9 53 -40 104 -75 123 -16 8 -51 17 -80 21
-28 4 -54 11 -57 16 -9 14 53 65 93 76 57 15 75 14 110 -7z m-2977 -42 c16
-17 39 -51 51 -76 18 -37 19 -47 8 -54 -21 -13 -26 -12 -69 27 -52 47 -65 36
-18 -14 52 -54 63 -79 40 -91 -16 -8 -29 1 -80 59 -34 38 -62 75 -62 82 0 16
74 98 89 98 6 0 24 -14 41 -31z m476 -18 c145 -25 207 -41 409 -106 94 -30
240 -73 325 -95 85 -23 222 -66 303 -97 254 -94 412 -134 602 -153 55 -5 116
-15 135 -21 19 -6 107 -14 195 -18 l160 -6 -2 -34 c-3 -61 -30 -83 -128 -108
-298 -76 -652 -44 -1145 104 -404 121 -633 171 -860 188 -104 8 -130 13 -130
25 0 5 -12 34 -26 64 -22 48 -25 60 -15 87 17 48 14 109 -4 109 -8 0 -15 -1
-15 -2 0 -2 -6 -20 -13 -40 l-13 -38 -52 74 c-29 41 -52 77 -52 80 0 14 225 5
326 -13z m-1570 -453 c-3 -200 -11 -428 -17 -508 -6 -80 -11 -161 -12 -180 -1
-101 -1 -458 1 -541 2 -74 -1 -99 -12 -108 -11 -9 -16 -9 -23 1 -11 18 -5 834
8 943 5 50 13 234 17 410 4 176 11 326 15 333 27 42 30 4 23 -350z m1221 290
c48 -52 77 -128 54 -143 -9 -5 -51 32 -51 46 0 3 -13 23 -30 44 -23 30 -27 41
-19 56 13 25 21 24 46 -3z m-1318 -425 c0 -393 -16 -675 -33 -589 -7 36 -1
635 9 856 2 52 4 101 5 108 0 6 4 12 9 12 6 0 10 -151 10 -387z m1306 304 c44
-66 54 -111 29 -121 -14 -5 -25 1 -41 21 -13 15 -23 31 -23 36 0 4 -13 26 -30
49 -33 45 -36 58 -18 76 17 17 44 -2 83 -61z m168 -145 c32 -80 33 -138 3
-126 -24 9 -74 153 -61 174 11 18 42 -8 58 -48z m-321 -13 c23 -46 23 -69 -1
-69 -11 0 -23 11 -29 28 -31 78 -5 113 30 41z m96 -209 c41 -81 43 -88 37
-148 -7 -61 -6 -63 27 -94 l33 -31 3 -114 c3 -93 1 -118 -13 -139 -15 -24 -15
-29 0 -66 20 -50 12 -91 -21 -112 -30 -20 -30 -33 -2 -63 15 -16 21 -34 20
-63 -2 -55 -17 -79 -58 -96 -19 -8 -34 -17 -34 -20 0 -3 11 -19 25 -36 46 -54
20 -180 -43 -207 -38 -17 -46 -38 -43 -112 2 -50 -2 -61 -31 -100 -26 -33 -43
-46 -74 -53 l-40 -9 0 -51 c-1 -50 -18 -86 -67 -148 -19 -25 -29 -23 -62 12
-39 40 -59 40 -38 -1 18 -37 10 -117 -15 -136 -27 -20 -74 -15 -114 12 -49 33
-61 32 -53 -4 7 -34 -9 -71 -30 -71 -8 0 -15 -4 -15 -10 0 -5 11 -10 25 -10
14 0 25 -4 25 -8 0 -22 -78 -89 -112 -97 -26 -7 -28 -5 -28 23 0 28 -3 31 -37
34 -34 3 -38 6 -44 38 -4 19 -11 57 -17 83 -5 27 -7 56 -5 65 3 9 30 39 61 66
50 44 58 48 93 43 34 -4 39 -2 39 14 0 11 10 40 21 65 25 52 67 79 110 70 28
-5 29 -4 29 30 0 55 65 128 123 139 27 6 33 18 41 78 9 67 30 104 72 129 30
18 34 24 29 48 -4 18 2 46 20 83 14 31 25 60 25 66 0 5 13 20 30 33 26 21 29
27 21 54 -6 21 -4 42 6 70 20 53 30 96 44 183 9 58 15 75 30 78 23 6 24 11 2
36 -16 17 -18 42 -19 186 -1 161 -2 169 -32 250 -18 45 -29 87 -26 93 15 24
42 -3 82 -82z m2778 -67 c57 -132 196 -400 263 -511 35 -58 109 -214 179 -378
66 -153 172 -388 236 -520 64 -133 116 -244 116 -248 0 -3 72 -152 160 -332
88 -180 160 -328 160 -330 0 -3 51 -102 114 -222 103 -198 217 -396 281 -490
28 -41 32 -72 11 -72 -8 0 -56 11 -108 25 -211 55 -676 94 -1145 96 -262 1
-334 4 -343 14 -16 20 -29 479 -37 1300 -6 685 -4 775 22 1025 13 123 25 513
19 591 -12 164 14 183 72 52z m-156 47 c24 -15 19 -457 -10 -730 -29 -278 -38
-922 -21 -1421 25 -712 28 -844 20 -860 -7 -14 -33 -18 -156 -23 -82 -3 -213
-13 -293 -21 -80 -8 -195 -17 -255 -20 -61 -3 -151 -12 -200 -20 -50 -8 -110
-15 -135 -15 -75 0 -170 -26 -316 -84 -76 -30 -142 -52 -146 -48 -3 4 33 79
81 168 48 88 127 245 175 350 164 351 376 817 518 1134 77 173 195 423 262
555 224 441 292 602 385 912 28 92 50 133 69 133 4 0 14 -5 22 -10z m-2312
-22 c7 -7 12 -38 12 -70 0 -51 -2 -58 -20 -58 -23 0 -36 51 -26 105 7 37 15
42 34 23z m-71 -104 c18 -52 14 -128 -8 -132 -13 -2 -20 9 -28 45 -14 62 -17
105 -7 121 13 21 28 9 43 -34z m103 -169 c0 -8 -7 -15 -15 -15 -16 0 -20 12
-8 23 11 12 23 8 23 -8z m-86 -21 c12 -5 16 -21 16 -74 0 -38 -4 -71 -8 -74
-15 -9 -29 9 -35 47 -5 33 1 107 8 107 2 0 10 -3 19 -6z m24 -272 c-3 -39 -6
-47 -23 -47 -17 0 -20 8 -23 46 -2 34 2 51 14 64 16 15 18 15 26 1 5 -9 8 -38
6 -64z m-91 -9 c5 -27 6 -59 2 -73 -4 -14 -7 -58 -8 -99 -1 -83 -18 -150 -39
-158 -20 -8 -31 16 -22 46 5 14 11 85 13 157 4 121 15 174 36 174 5 0 13 -21
18 -47z m-1458 -75 c-1 -101 -2 -102 -11 -43 -8 54 -3 145 8 145 2 0 3 -46 3
-102z m1547 -59 c10 -17 -13 -36 -27 -22 -12 12 -4 33 11 33 5 0 12 -5 16 -11z
m-1544 -552 c-3 -74 -9 -123 -13 -115 -11 16 -11 157 -2 319 l8 124 6 -100 c3
-55 4 -158 1 -228z m1396 262 c2 -39 -1 -59 -11 -68 -23 -19 -34 7 -29 72 3
47 7 58 20 55 13 -2 18 -17 20 -59z m-58 -194 c10 -12 7 -23 -15 -60 -17 -30
-32 -45 -43 -43 -26 5 -25 33 3 77 28 45 36 49 55 26z m-1254 -100 c3 -13 3
-48 0 -77 -3 -29 -10 -210 -15 -403 -8 -336 -12 -391 -32 -379 -13 8 -11 438
2 509 7 33 11 74 10 90 -4 80 -2 266 4 275 11 17 24 11 31 -15z m1086 -177
c-6 -6 -15 -9 -18 -5 -4 3 -4 14 0 23 5 13 9 15 18 6 9 -9 9 -15 0 -24z
m-1172 -130 c0 -33 -4 -48 -9 -42 -9 8 -4 94 5 94 2 0 4 -23 4 -52z m434 -111
c17 -12 17 -14 -1 -35 -10 -12 -31 -28 -48 -37 l-30 -15 46 0 c49 0 51 -2 69
-63 7 -22 4 -31 -12 -47 -25 -23 -80 -50 -102 -50 -19 0 -36 38 -36 81 0 16
-7 41 -16 54 -27 41 -11 73 49 101 61 28 58 28 81 11z m30 -266 c9 -13 -33
-61 -54 -61 -10 0 -21 8 -25 17 -11 31 62 72 79 44z m-484 -221 c0 -107 -4
-170 -10 -170 -6 0 -10 63 -10 170 0 107 4 170 10 170 6 0 10 -63 10 -170z
m78 -4 c5 -25 -6 -66 -18 -66 -6 0 -10 21 -10 46 0 32 4 44 13 42 6 -3 14 -13
15 -22z m-3 -127 c7 -22 -1 -152 -13 -199 l-5 -25 -6 25 c-3 14 -5 69 -3 123
3 93 13 121 27 76z m-18 -346 c6 -54 7 -133 2 -203 -4 -63 -8 -194 -9 -290 0
-96 -7 -301 -15 -455 -8 -154 -15 -284 -15 -289 0 -5 -6 -3 -13 3 -11 9 -13
42 -9 158 2 82 5 252 7 378 1 180 20 770 24 783 1 1 5 2 9 2 5 0 13 -39 19
-87z m4688 -413 c439 -29 620 -56 831 -125 246 -80 293 -128 170 -177 -73 -28
-332 -98 -365 -98 -27 0 -34 9 -93 118 -48 87 -70 118 -86 120 -19 3 -22 -1
-22 -28 0 -38 26 -91 80 -158 22 -29 38 -57 35 -62 -3 -6 -23 -10 -44 -10 -47
0 -57 11 -130 137 -43 75 -62 99 -80 101 -13 2 -27 -2 -32 -9 -9 -15 27 -89
82 -171 45 -66 47 -74 17 -82 -67 -18 -104 16 -190 171 -52 93 -65 107 -94 96
-29 -11 -8 -71 61 -174 36 -54 65 -100 65 -103 0 -3 -16 -8 -35 -12 -44 -8
-57 3 -90 74 -49 107 -128 232 -148 232 -26 0 -31 -25 -13 -70 22 -55 21 -57
-21 -71 -34 -11 -38 -10 -55 11 -10 12 -18 30 -18 39 0 9 -18 36 -38 60 -34
39 -41 42 -60 32 -21 -11 -21 -13 -7 -48 19 -45 11 -54 -49 -60 -42 -5 -46 -4
-55 21 -6 14 -8 33 -5 41 4 10 0 15 -14 15 -11 0 -25 7 -32 15 -7 8 -23 15
-36 15 -18 0 -24 -6 -24 -22 0 -13 -3 -32 -6 -43 -4 -16 2 -23 25 -32 47 -17
41 -47 -13 -68 -25 -10 -49 -14 -55 -10 -18 11 -12 54 9 65 31 17 24 29 -14
23 -38 -6 -46 0 -84 71 -30 56 -43 64 -65 42 -14 -14 -12 -23 14 -83 l29 -68
-22 -18 c-32 -27 -72 -19 -76 15 -2 15 1 36 7 46 6 11 6 23 1 28 -11 12 -17
185 -6 202 4 7 18 17 30 21 26 10 527 3 721 -9z m-845 -19 c16 -32 12 -96 -7
-113 -35 -29 -43 -29 -69 -1 -31 34 -56 23 -64 -28 -5 -30 -10 -35 -53 -47
-57 -16 -69 -10 -86 48 -14 47 -31 50 -73 15 -36 -31 -74 -32 -104 -4 -30 28
-54 19 -54 -20 0 -33 -24 -54 -72 -66 -24 -6 -28 -3 -47 39 -25 58 -49 60 -82
9 -19 -31 -31 -39 -59 -41 -33 -3 -36 0 -45 30 -13 43 -43 48 -80 14 -35 -33
-55 -33 -85 -1 -29 31 -44 31 -106 4 -42 -19 -54 -21 -91 -10 -53 14 -63 14
-63 1 0 -5 9 -10 20 -10 24 0 25 -8 4 -38 -18 -25 -62 -30 -71 -7 -3 9 3 22
13 31 34 27 -45 6 -99 -27 -27 -16 -52 -29 -56 -29 -4 0 -33 -18 -65 -41 -61
-44 -89 -47 -94 -10 -6 41 50 87 162 130 287 111 457 151 644 151 40 0 126 7
190 15 161 20 182 21 394 23 176 2 188 1 198 -17z m8 -185 c2 -10 -1 -23 -7
-29 -14 -14 -41 9 -41 35 0 26 43 21 48 -6z m-340 -29 c3 -32 0 -38 -22 -47
-34 -13 -53 -4 -59 28 -9 45 9 62 58 59 16 -2 21 -10 23 -40z m-704 17 c11
-29 6 -40 -26 -52 -23 -8 -35 -9 -45 -1 -20 17 -16 27 20 49 39 24 43 24 51 4z
m354 -37 c5 -43 -70 -79 -92 -44 -9 15 -6 22 22 46 39 35 66 34 70 -2z m584 8
c14 -31 3 -46 -55 -74 -38 -19 -42 -19 -59 -4 -31 28 -23 57 25 80 56 29 75
28 89 -2z m-777 -10 c0 -14 -8 -21 -27 -23 -22 -3 -28 1 -28 17 0 10 6 22 13
24 23 10 42 2 42 -18z m395 -24 c17 -33 11 -56 -19 -74 -40 -23 -56 -21 -69 8
-17 37 -15 52 10 69 31 22 65 20 78 -3z m-856 -16 c8 -22 -40 -44 -57 -26 -9
10 -8 15 7 27 25 18 42 18 50 -1z m154 -17 c2 -19 -2 -28 -17 -33 -26 -8 -41
1 -41 24 0 44 53 53 58 9z m1790 20 c18 -18 14 -46 -7 -58 -39 -20 -101 -7
-101 22 0 11 61 48 81 48 8 0 20 -5 27 -12z m-1600 -22 c3 -11 -4 -26 -14 -33
-45 -33 -87 4 -43 38 29 23 52 21 57 -5z m707 -27 c8 -36 -16 -69 -51 -69 -19
0 -24 7 -30 37 -5 29 -3 39 11 50 33 24 63 16 70 -18z m-546 3 c18 -34 -24
-57 -49 -27 -10 12 -10 18 0 30 17 20 37 19 49 -3z m1674 -29 c17 -26 40 -55
50 -66 31 -32 14 -48 -45 -45 -51 3 -54 5 -85 52 -39 57 -41 79 -10 94 40 19
57 13 90 -35z m-1472 -4 c17 -35 19 -45 9 -70 -14 -32 -14 -32 -58 -23 -30 6
-52 37 -52 75 0 17 51 59 72 59 4 0 17 -18 29 -41z m587 9 c25 -39 21 -49 -27
-76 -51 -29 -68 -28 -86 8 -22 43 -19 54 23 78 50 29 67 28 90 -10z m272 13
c15 -28 15 -28 -40 -56 -64 -32 -93 -33 -88 -2 2 15 19 31 53 49 60 33 62 33
75 9z m-1685 -11 c3 -6 -1 -13 -10 -16 -19 -8 -30 0 -20 15 8 14 22 14 30 1z
m164 -4 c9 -11 6 -19 -19 -36 -30 -21 -33 -21 -48 -6 -16 16 -15 18 8 36 30
23 44 25 59 6z m1737 -7 c19 -21 18 -21 -5 -40 -32 -26 -68 -34 -86 -19 -25
20 -17 46 18 64 42 21 50 20 73 -5z m-1576 -3 c0 -2 3 -11 6 -19 7 -20 -22
-47 -51 -47 -42 0 -44 38 -2 58 23 11 47 15 47 8z m208 -43 c4 -25 -30 -36
-77 -27 -35 7 -38 15 -13 36 36 32 85 27 90 -9z m502 5 c11 -18 20 -40 20 -49
0 -20 -34 -31 -70 -22 -59 14 -67 50 -17 82 42 27 44 27 67 -11z m1082 20 c8
-7 27 -30 43 -50 l27 -38 -27 -10 c-14 -5 -44 -10 -65 -10 -31 0 -43 6 -59 29
-30 41 -26 57 17 74 46 20 45 20 64 5z m1198 3 c0 -30 -146 -178 -199 -202
-56 -25 -59 -24 -63 9 -4 37 -40 43 -56 8 -6 -14 -20 -30 -31 -35 -16 -9 -23
-7 -39 14 -25 31 -48 32 -63 3 -16 -30 -28 -38 -61 -38 -25 0 -28 3 -28 35 0
46 -32 49 -50 5 -17 -41 -46 -60 -91 -60 -28 0 -38 5 -47 25 -6 14 -19 25 -27
25 -8 0 -21 -11 -27 -25 -10 -22 -18 -25 -59 -25 -29 0 -53 6 -63 15 -8 8 -21
15 -28 15 -21 -1 -81 -57 -69 -64 20 -13 12 -55 -14 -72 -18 -12 -25 -25 -25
-49 0 -25 -8 -40 -30 -58 -22 -19 -30 -35 -30 -57 0 -32 -21 -82 -48 -113 -13
-15 -14 -22 -4 -37 6 -11 8 -21 3 -24 -25 -16 -219 -38 -371 -43 -139 -4 -195
-2 -270 12 -52 9 -126 21 -164 27 -38 5 -122 25 -185 45 -64 19 -154 46 -201
59 -234 68 -327 101 -457 164 -149 72 -193 104 -193 142 0 48 -20 98 -39 98
-24 0 -34 -26 -21 -50 14 -25 13 -40 -2 -40 -16 0 -227 168 -242 192 -15 25
-3 31 41 19 21 -6 106 -16 188 -21 352 -23 506 -33 605 -41 364 -28 1073 -33
1415 -10 245 17 634 68 761 99 65 17 146 37 179 45 72 18 105 20 105 8z
m-2621 -44 c13 -16 5 -27 -19 -27 -20 0 -43 24 -33 33 11 12 40 8 52 -6z m546
-13 c14 -15 25 -31 25 -35 0 -5 -31 -9 -70 -9 -38 0 -70 4 -70 10 0 10 69 60
83 60 4 0 19 -12 32 -26z m525 2 c40 -44 23 -56 -80 -56 -52 0 -90 4 -90 10 0
11 108 69 131 70 8 0 26 -11 39 -24z m214 -22 c24 -24 10 -34 -45 -34 -54 0
-67 18 -26 38 32 15 53 14 71 -4z m-509 -14 c0 -10 -12 -16 -32 -18 -24 -2
-33 1 -33 12 0 8 6 17 13 20 22 9 52 1 52 -14z m1516 -170 c10 -6 19 -17 19
-25 0 -20 -52 -45 -95 -45 -43 0 -46 19 -10 55 26 27 54 31 86 15z m-164 -26
c3 -8 1 -26 -5 -40 -10 -20 -19 -24 -57 -24 -53 0 -59 17 -20 55 27 28 73 33
82 9z m-173 0 c42 -16 -10 -84 -65 -84 -35 0 -42 12 -28 44 15 32 62 52 93 40z
m-156 -30 c5 -32 -24 -54 -69 -54 -35 0 -39 3 -39 24 0 51 101 79 108 30z
m392 -56 c0 -13 -108 -97 -141 -110 -11 -4 -36 0 -59 10 l-40 17 19 31 c20 33
32 36 181 58 14 2 28 4 33 5 4 0 7 -5 7 -11z m-455 -39 c11 -18 -16 -69 -40
-75 -65 -16 -95 19 -54 62 24 25 82 34 94 13z m185 -11 c0 -34 -13 -49 -53
-57 -45 -11 -87 -3 -87 16 0 7 11 25 25 38 18 19 35 25 70 25 40 0 45 -2 45
-22z m50 -89 c0 -14 -148 -81 -287 -129 -88 -31 -119 -37 -129 -29 -21 17 -9
26 52 40 75 17 77 29 5 29 -34 0 -61 2 -61 5 0 4 7 19 15 35 14 27 20 30 67
30 37 0 54 -5 63 -17 12 -17 14 -17 35 2 15 14 48 23 113 31 123 15 127 16
127 3z"/>
<path d="M4816 15125 c-16 -14 -26 -28 -22 -32 4 -4 21 7 39 25 37 38 25 43
-17 7z"/>
<path d="M4268 14515 c-10 -13 -18 -30 -18 -37 0 -8 -5 -19 -12 -26 -6 -6 -9
-14 -6 -17 5 -6 50 58 61 88 9 25 -5 21 -25 -8z"/>
<path d="M4077 14135 c-19 -41 -21 -55 -7 -55 11 0 40 53 40 75 0 26 -16 17
-33 -20z"/>
<path d="M7541 9853 c0 -5 4 -17 9 -28 8 -18 9 -17 9 8 1 15 -3 27 -9 27 -5 0
-10 -3 -9 -7z"/>
<path d="M7832 10305 c-22 -47 -13 -125 13 -125 11 0 35 95 35 138 0 22 -37
12 -48 -13z"/>
<path d="M8005 10281 c-3 -6 -9 -33 -12 -60 -4 -38 -2 -57 12 -77 25 -39 36
-17 33 66 -3 69 -16 97 -33 71z"/>
<path d="M8192 10278 c-14 -18 -25 -93 -17 -118 12 -38 32 -21 45 40 16 76 2
115 -28 78z"/>
<path d="M8320 10200 c-28 -52 12 -159 50 -135 8 5 7 27 -6 112 -5 37 -29 50
-44 23z"/>
<path d="M8466 10158 c-24 -37 -28 -71 -12 -93 19 -26 30 -14 45 48 16 66 -3
92 -33 45z"/>
<path d="M8650 10055 c-8 -10 -11 -30 -7 -56 6 -48 11 -54 32 -45 12 4 15 17
13 58 -3 54 -16 69 -38 43z"/>
<path d="M8814 10017 c-11 -29 -11 -52 -1 -74 22 -50 54 -7 39 52 -9 33 -29
44 -38 22z"/>
<path d="M8956 9967 c-21 -31 -7 -67 24 -67 15 0 20 7 20 28 0 16 -6 37 -14
47 -13 18 -14 17 -30 -8z"/>
<path d="M9114 9945 c-8 -21 3 -48 19 -43 19 7 22 58 2 58 -8 0 -18 -7 -21
-15z"/>
<path d="M9274 9909 c-9 -15 11 -33 30 -26 9 4 13 13 10 22 -7 17 -30 20 -40
4z"/>
<path d="M9724 9889 c-8 -14 18 -31 30 -19 9 9 0 30 -14 30 -5 0 -12 -5 -16
-11z"/>
<path d="M9460 9861 c0 -12 5 -21 10 -21 6 0 10 6 10 14 0 8 -4 18 -10 21 -5
3 -10 -3 -10 -14z"/>
<path d="M6972 8068 c-17 -17 -15 -28 7 -28 16 0 31 18 31 36 0 9 -27 3 -38
-8z"/>
<path d="M6532 7888 c-12 -12 -17 -38 -7 -38 16 0 55 25 52 34 -5 16 -31 18
-45 4z"/>
<path d="M11490 6495 c-16 -19 26 -98 81 -151 58 -57 67 -35 23 56 -51 107
-75 129 -104 95z"/>
<path d="M11694 6479 c-9 -16 5 -61 19 -56 18 6 21 53 3 60 -9 3 -18 2 -22 -4z"/>
<path d="M8970 6023 c1 -31 39 -105 52 -101 34 12 6 118 -31 118 -13 0 -21 -6
-21 -17z"/>
<path d="M10765 5983 c-3 -21 -34 -98 -66 -172 -36 -78 -58 -140 -54 -150 6
-14 8 -14 22 4 8 11 46 82 84 159 74 146 83 188 43 194 -18 3 -23 -4 -29 -35z"/>
<path d="M10595 5999 c-7 -10 -34 -148 -35 -171 0 -5 6 -8 14 -8 20 0 58 105
54 148 -3 36 -20 52 -33 31z"/>
<path d="M9154 5975 c-8 -19 13 -45 36 -45 28 0 31 12 8 37 -25 27 -36 29 -44
8z"/>
<path d="M10436 5975 c-10 -28 -7 -70 8 -90 13 -18 14 -18 25 4 17 31 10 95
-10 99 -9 2 -19 -4 -23 -13z"/>
<path d="M9298 5964 c-4 -3 5 -22 18 -41 13 -20 24 -41 24 -46 0 -7 4 -7 11 0
14 14 5 56 -17 77 -16 17 -27 20 -36 10z"/>
<path d="M5618 15899 c-31 -17 -21 -38 20 -41 l37 -3 0 -52 c1 -29 3 -54 5
-56 35 -33 89 -57 126 -57 58 0 88 16 118 60 20 30 33 39 66 45 22 4 40 11 40
16 0 5 -17 17 -37 27 -106 52 -329 88 -375 61z m197 -51 c1 -2 6 -13 9 -25 5
-16 2 -25 -15 -33 -15 -9 -18 -15 -10 -23 8 -8 22 -5 50 11 40 23 56 18 45
-12 -9 -23 -57 -46 -96 -46 -45 1 -77 28 -85 73 -8 51 9 69 59 63 22 -2 41 -6
43 -8z"/>
<path d="M6307 15738 c-31 -47 -38 -78 -17 -78 19 0 88 61 92 82 13 67 -29 64
-75 -4z"/>
<path d="M5330 15650 c0 -11 7 -20 15 -20 13 0 14 4 5 20 -6 11 -13 20 -15 20
-3 0 -5 -9 -5 -20z"/>
<path d="M5090 15547 c0 -7 6 -22 14 -33 14 -17 16 -18 31 -3 15 15 15 17 0
33 -20 19 -45 21 -45 3z"/>
<path d="M4519 15322 c-67 -51 -82 -72 -52 -72 18 0 123 95 123 111 0 15 -6
11 -71 -39z"/>
<path d="M4815 15338 c9 -42 11 -44 30 -28 23 19 15 54 -13 58 -22 3 -23 1
-17 -30z"/>
<path d="M4640 15192 c-45 -37 -74 -52 -100 -52 -11 0 -23 -8 -27 -17 -3 -10
-26 -39 -50 -65 -44 -48 -54 -81 -28 -92 10 -3 27 13 54 53 24 35 52 63 71 71
17 7 41 25 53 40 13 15 35 35 50 45 25 16 37 45 19 45 -4 0 -23 -13 -42 -28z"/>
<path d="M6147 14947 c-10 -26 -7 -356 7 -742 6 -181 10 -338 7 -348 -6 -27
-52 -18 -68 13 -12 25 -13 24 -13 -12 0 -26 8 -45 25 -64 14 -15 25 -34 26
-43 1 -9 4 -5 8 8 13 48 30 35 33 -26 l3 -58 8 40 c12 56 27 84 50 91 17 5 19
12 13 53 -3 25 -10 105 -15 176 -5 72 -14 184 -20 250 -6 66 -18 231 -27 366
-17 264 -25 327 -37 296z"/>
<path d="M4204 14753 c-8 -3 -8 -15 -1 -42 l10 -38 23 24 c13 14 20 31 18 38
-6 14 -32 24 -50 18z"/>
<path d="M3954 14664 c-58 -62 -94 -144 -64 -144 19 0 108 156 96 167 -3 3
-17 -8 -32 -23z"/>
<path d="M4018 14459 c-19 -14 -28 -30 -28 -49 0 -15 -7 -33 -16 -41 -30 -25
-79 -158 -64 -173 7 -7 10 -3 10 11 0 12 5 25 11 29 7 4 30 46 52 93 22 47 48
98 58 113 31 44 22 51 -23 17z"/>
<path d="M3758 14260 c-23 -54 -31 -93 -17 -88 14 5 41 84 36 106 -2 12 -8 6
-19 -18z"/>
<path d="M3845 14080 c-8 -13 14 -52 26 -45 15 10 11 55 -5 55 -8 0 -18 -4
-21 -10z"/>
<path d="M6082 13970 c0 -75 0 -75 10 -26 5 30 5 58 -1 75 -7 21 -9 10 -9 -49z"/>
<path d="M6523 13794 c-100 -96 -187 -174 -193 -174 -6 0 -13 14 -17 32 l-6
31 -23 -50 c-25 -58 -57 -76 -79 -46 -8 10 -15 29 -15 41 0 15 -7 26 -20 29
-11 3 -20 13 -21 22 -1 34 -18 -24 -18 -66 -1 -32 -5 -43 -17 -43 -31 0 -56
23 -80 73 l-24 52 0 -37 c0 -59 -28 -50 -118 40 -110 109 -182 174 -182 164 0
-4 14 -21 30 -37 17 -16 30 -33 30 -38 0 -5 40 -49 88 -98 62 -63 97 -91 120
-95 34 -7 72 -45 72 -73 0 -34 -22 -41 -121 -41 -89 0 -98 2 -104 20 -9 29
-41 43 -78 34 -30 -6 -31 -7 -9 -15 15 -6 22 -17 22 -34 0 -24 -2 -25 -57 -20
-114 9 -795 15 -920 8 -127 -7 -140 -20 -22 -22 30 -1 80 -5 110 -11 30 -5
176 -16 324 -25 149 -9 299 -20 335 -25 36 -5 113 -10 171 -10 90 0 108 3 122
18 10 10 17 26 17 35 0 23 41 33 55 13 9 -11 28 -16 66 -16 33 0 63 -6 76 -15
19 -13 20 -19 11 -45 -5 -17 -13 -30 -16 -31 -4 0 -17 -2 -29 -3 -32 -4 -41
-16 -20 -27 26 -15 21 -55 -12 -91 -26 -29 -32 -32 -50 -20 -18 10 -21 10 -21
-4 0 -20 -48 -81 -142 -180 -38 -39 -68 -75 -68 -79 0 -5 31 21 68 56 105 98
163 149 171 149 16 0 90 87 96 113 9 36 58 87 84 87 12 0 21 -5 21 -11 0 -5 4
-7 10 -4 6 4 8 -5 6 -22 -18 -141 -18 -149 -2 -129 9 11 16 24 16 29 0 4 5 5
11 2 6 -4 8 -13 5 -21 -3 -8 -1 -14 4 -14 6 0 10 31 10 68 0 61 3 71 26 91 20
18 28 20 40 10 8 -6 14 -20 14 -31 0 -34 27 -72 98 -138 38 -36 76 -69 83 -75
8 -5 43 -36 77 -67 119 -109 83 -58 -56 80 -76 75 -144 147 -151 160 -10 20
-9 23 14 34 19 8 31 8 51 -1 34 -15 40 -9 15 13 -11 10 -37 20 -58 23 -34 4
-40 9 -50 41 -16 50 -7 54 101 49 79 -3 91 -6 104 -25 14 -21 22 -22 136 -22
66 1 155 5 196 10 41 5 118 12 170 15 246 15 576 53 563 65 -9 9 -94 10 -687
5 -274 -2 -391 -7 -396 -15 -8 -13 -90 -3 -90 11 0 5 -25 9 -55 9 -55 0 -55 0
-55 30 0 38 38 74 94 92 29 9 59 35 125 109 114 128 214 249 210 254 -2 2 -86
-75 -186 -171z m-365 -317 c2 -12 -3 -17 -17 -17 -12 0 -21 6 -21 13 0 31 32
34 38 4z m-420 -32 c3 -3 -46 -4 -109 -3 -77 1 -100 3 -69 7 49 7 170 4 178
-4z m1065 8 c59 -3 107 -9 107 -12 0 -10 -343 -1 -360 9 -18 11 101 13 253 3z
m-533 -76 c0 -5 -4 -5 -10 -2 -5 3 -10 14 -10 23 0 15 2 15 10 2 5 -8 10 -19
10 -23z"/>
<path d="M3810 13869 c0 -24 4 -38 10 -34 6 3 10 22 10 41 0 19 -4 34 -10 34
-5 0 -10 -18 -10 -41z"/>
<path d="M3785 13647 c-4 -21 -3 -53 2 -70 l10 -32 8 48 c4 29 3 57 -3 70 -9
20 -10 19 -17 -16z"/>
<path d="M5535 13530 c-7 -12 32 -12 60 0 16 7 13 9 -17 9 -20 1 -40 -3 -43
-9z"/>
<path d="M6615 13531 c-67 -4 -109 -10 -106 -16 1 -5 8 -8 15 -5 6 2 69 6 140
8 82 2 124 7 115 13 -8 5 -23 8 -34 7 -11 -1 -69 -4 -130 -7z"/>
<path d="M6928 13513 c12 -2 32 -2 45 0 12 2 2 4 -23 4 -25 0 -35 -2 -22 -4z"/>
<path d="M3780 13355 c0 -8 5 -15 10 -15 6 0 10 7 10 15 0 8 -4 15 -10 15 -5
0 -10 -7 -10 -15z"/>
<path d="M3620 13266 c0 -14 5 -28 10 -31 6 -4 10 7 10 24 0 17 -4 31 -10 31
-5 0 -10 -11 -10 -24z"/>
<path d="M3753 13204 c-28 -12 -13 -34 23 -34 28 0 35 3 32 18 -3 17 -32 25
-55 16z"/>
<path d="M6135 13130 c-3 -5 -15 -10 -26 -10 -24 0 -40 -39 -31 -75 l8 -27 12
26 c9 20 19 26 42 26 l30 0 -5 -262 c-2 -145 -9 -279 -15 -298 -6 -21 -10
-145 -9 -318 1 -238 3 -284 15 -289 22 -8 25 0 13 35 -6 17 -9 39 -6 49 3 14
7 11 18 -14 7 -18 17 -33 21 -33 8 0 4 34 -12 106 -5 22 -7 76 -5 120 2 43 7
124 10 179 3 55 9 147 14 205 5 58 13 179 16 270 4 91 11 187 15 215 9 60 7
66 -29 88 -32 19 -67 22 -76 7z"/>
<path d="M3786 13103 c-8 -8 -8 -101 0 -130 13 -46 24 -21 24 51 0 69 -8 95
-24 79z"/>
<path d="M5719 13073 l-24 -28 28 24 c15 14 27 26 27 28 0 8 -8 1 -31 -24z"/>
<path d="M5646 13000 c-50 -55 -46 -65 5 -12 23 23 40 45 37 48 -3 2 -22 -14
-42 -36z"/>
<path d="M3647 12994 c-9 -9 -8 -64 2 -88 11 -29 25 -1 22 44 -2 37 -13 55
-24 44z"/>
<path d="M6081 12934 c0 -11 3 -14 6 -6 3 7 2 16 -1 19 -3 4 -6 -2 -5 -13z"/>
<path d="M3808 12871 c-4 -42 5 -61 29 -61 19 0 15 51 -6 79 l-19 24 -4 -42z"/>
<path d="M6081 12894 c0 -11 3 -14 6 -6 3 7 2 16 -1 19 -3 4 -6 -2 -5 -13z"/>
<path d="M3695 12651 c-3 -5 -1 -12 5 -16 5 -3 10 1 10 9 0 18 -6 21 -15 7z"/>
<path d="M3715 12550 c-4 -6 -3 -16 3 -22 6 -6 12 -6 17 2 4 6 3 16 -3 22 -6
6 -12 6 -17 -2z"/>
<path d="M3908 12510 c-17 -29 -17 -31 0 -36 9 -3 25 -10 34 -15 27 -14 28
-12 15 33 -15 52 -27 56 -49 18z"/>
<path d="M3855 12200 c-4 -6 -2 -17 4 -23 15 -15 25 -2 13 19 -7 12 -11 13
-17 4z"/>
<path d="M4237 11983 c-15 -14 -7 -43 12 -43 26 0 36 17 21 35 -14 16 -23 19
-33 8z"/>
<path d="M6262 11668 c-24 -5 -45 -15 -47 -21 -2 -7 -6 -24 -9 -39 -8 -34 -26
-37 -26 -5 0 32 -14 50 -36 45 -18 -3 -19 -14 -19 -158 1 -85 4 -167 8 -182 8
-32 31 -37 46 -10 10 16 12 16 25 0 8 -11 27 -18 49 -18 20 0 39 -4 42 -10 9
-14 55 -12 57 3 4 29 10 181 11 287 l2 115 -30 2 c-16 1 -49 -3 -73 -9z m-58
-144 c8 -20 8 -122 0 -151 -14 -50 -24 -18 -24 72 0 88 9 118 24 79z"/>
<path d="M5764 11624 c-8 -56 4 -225 18 -241 6 -7 25 -13 43 -13 19 0 35 6 38
13 3 6 2 68 0 137 -6 136 -12 150 -64 150 -25 0 -28 -4 -35 -46z"/>
<path d="M6020 11616 c-11 -29 -12 -211 -1 -261 3 -17 13 -30 21 -30 13 0 14
22 11 150 -3 152 -12 191 -31 141z"/>
<path d="M5781 10806 c-11 -19 -11 -37 -1 -92 9 -53 10 -95 1 -178 -6 -60 -11
-189 -11 -285 l0 -176 -157 158 c-189 189 -232 221 -410 314 -160 83 -501 202
-654 229 -114 20 -459 14 -633 -10 -193 -27 -508 -120 -666 -197 -88 -42 -233
-99 -355 -139 -38 -13 -119 -45 -180 -72 -215 -96 -463 -163 -650 -175 -164
-10 -412 49 -470 113 -17 19 -40 34 -51 34 -21 0 -84 59 -103 97 -42 82 51
189 181 209 82 13 94 32 58 92 -13 21 -38 41 -66 53 -54 25 -88 21 -222 -23
-70 -23 -102 -39 -129 -66 -77 -76 -115 -227 -94 -369 20 -134 40 -161 242
-316 41 -31 49 -42 43 -60 -3 -12 -53 -139 -109 -282 -97 -244 -258 -665 -292
-765 -19 -55 -207 -474 -298 -665 -138 -288 -289 -654 -395 -960 -69 -199
-305 -814 -337 -879 -23 -45 -24 -52 -12 -94 22 -78 164 -247 269 -319 72 -48
329 -194 405 -228 87 -39 237 -89 330 -109 85 -19 320 -52 430 -61 223 -18
694 9 878 51 107 25 400 130 501 181 280 141 477 298 561 447 42 75 45 113 10
146 -21 20 -25 33 -25 79 0 50 -7 69 -61 166 -111 202 -479 966 -571 1184 -53
126 -126 270 -199 393 -33 56 -94 165 -136 242 -42 78 -113 206 -158 286 -149
264 -304 569 -423 831 -73 161 -80 183 -83 250 l-4 74 145 -3 c80 -2 233 3
340 12 217 18 228 19 320 46 36 10 104 25 151 34 120 22 523 138 647 187 56
22 137 48 180 59 111 28 437 80 498 80 49 0 301 -45 429 -76 84 -21 326 -110
410 -151 107 -53 518 -301 597 -362 41 -31 115 -72 175 -98 91 -40 108 -44
130 -34 14 6 27 10 29 9 2 -2 5 -193 8 -423 2 -231 7 -427 10 -435 3 -8 8
-249 11 -535 2 -286 7 -610 10 -720 5 -165 9 -765 14 -2017 l1 -157 39 -12
c22 -6 45 -9 53 -7 10 4 13 62 13 284 0 154 -4 291 -9 307 -5 17 -15 27 -27
27 -16 0 -19 7 -19 42 0 23 5 56 12 74 9 27 9 38 -3 60 -11 21 -13 60 -11 173
2 80 4 270 4 421 1 151 4 260 7 241 9 -49 31 -52 33 -4 4 94 -4 178 -19 186
-10 6 -13 17 -8 34 4 17 0 32 -11 44 -12 13 -14 26 -9 46 l7 28 10 -27 c5 -16
13 -28 18 -28 12 0 24 118 24 225 -6 1112 -16 1989 -22 1998 -4 7 -10 188 -13
402 -4 218 -12 416 -18 450 -6 33 -11 160 -11 287 l0 227 -38 11 c-49 13 -47
14 -61 -14z m-4198 -67 c43 -23 47 -44 11 -53 -91 -23 -216 -121 -233 -182
-18 -64 15 -132 99 -205 49 -43 60 -57 60 -83 0 -38 -25 -135 -38 -148 -14
-14 -58 12 -129 76 -86 78 -104 121 -111 256 -5 117 9 185 50 243 24 34 89 66
133 67 17 1 46 9 65 20 41 22 63 24 93 9z m2842 -8 c96 -7 136 -16 320 -75
229 -74 403 -151 542 -241 65 -42 130 -100 251 -223 232 -237 215 -209 220
-361 5 -192 -8 -198 -176 -84 -101 69 -162 107 -447 280 -143 87 -204 116
-385 187 -241 95 -466 152 -640 163 -171 10 -503 -51 -775 -142 -215 -72 -389
-122 -605 -174 -283 -68 -422 -89 -641 -97 -185 -7 -186 -7 -207 16 -21 23
-22 23 -42 5 -19 -17 -25 -17 -83 -4 -55 12 -64 18 -79 49 -24 48 -47 143 -38
153 4 5 45 -1 91 -13 260 -67 514 -37 902 104 50 19 142 56 202 84 61 27 144
61 186 75 87 29 222 84 294 120 28 14 91 37 140 52 50 15 124 38 165 50 215
66 532 96 805 76z m1415 -297 c0 -8 -4 -12 -10 -9 -5 3 -10 10 -10 16 0 5 5 9
10 9 6 0 10 -7 10 -16z m14 -211 c4 -17 11 -816 7 -838 -1 -5 -6 0 -11 11 -13
34 -25 844 -12 844 6 0 13 -8 16 -17z m-4224 -194 c0 -20 -15 -26 -25 -9 -9
15 3 43 15 35 5 -3 10 -15 10 -26z m-122 -629 c-4 -271 -3 -554 3 -680 30
-669 40 -879 49 -1010 16 -223 25 -1057 11 -1073 -8 -10 -60 -16 -193 -21
-430 -16 -612 -41 -1156 -157 -56 -12 -105 -19 -108 -16 -3 3 19 70 50 149
128 331 212 554 276 733 119 330 234 612 350 855 198 416 314 687 450 1050
104 277 200 514 219 541 11 14 25 45 32 68 7 23 15 38 19 34 3 -4 3 -217 -2
-473z m152 349 c28 -55 77 -160 110 -232 80 -180 356 -718 406 -792 23 -33 50
-81 62 -107 11 -26 52 -103 91 -171 39 -68 71 -127 71 -130 0 -3 37 -70 81
-149 82 -144 124 -230 359 -743 139 -304 289 -614 371 -767 29 -54 50 -100 47
-103 -3 -3 -45 6 -94 20 -84 25 -246 53 -432 75 -55 7 -172 7 -345 1 -144 -6
-366 -13 -494 -17 l-232 -7 -5 24 c-2 13 -9 265 -15 559 -7 294 -16 589 -21
655 -30 393 -45 856 -45 1390 1 308 4 568 8 578 12 32 27 17 77 -84z m4220
-626 c0 -123 -4 -223 -8 -223 -10 0 -25 431 -16 455 17 43 24 -25 24 -232z
m14 -720 c4 -102 3 -163 -3 -163 -29 0 -39 165 -24 375 l8 100 7 -75 c3 -41 9
-148 12 -237z m-17 -285 c-2 -13 -4 -3 -4 22 0 25 2 35 4 23 2 -13 2 -33 0
-45z m19 -412 c-12 -78 -26 -52 -25 47 l1 92 15 -46 c11 -32 13 -61 9 -93z
m-1 -282 c-4 -48 -11 -84 -17 -84 -12 0 -5 141 8 174 13 34 17 0 9 -90z
m-3017 -849 c177 -27 220 -36 287 -65 34 -15 45 -25 45 -42 0 -12 11 -34 25
-48 22 -23 24 -29 11 -39 -8 -7 -36 -19 -62 -27 l-47 -14 -36 38 c-20 20 -57
65 -83 100 -48 62 -73 76 -84 47 -7 -18 25 -69 86 -140 38 -44 41 -50 25 -61
-9 -7 -35 -16 -57 -19 -36 -6 -46 -3 -96 31 -31 22 -85 73 -121 114 -35 41
-70 78 -77 83 -15 8 -44 -1 -44 -15 0 -18 92 -138 136 -177 24 -21 44 -43 44
-49 0 -14 -56 -32 -100 -32 -34 0 -43 6 -85 58 -26 31 -68 92 -94 134 -46 78
-73 100 -94 79 -17 -17 50 -143 114 -215 32 -35 48 -61 42 -67 -5 -5 -29 -12
-55 -15 l-46 -6 -56 68 c-31 37 -77 108 -102 157 -47 91 -64 108 -89 87 -26
-21 27 -133 117 -245 26 -33 48 -63 48 -68 0 -4 -11 -12 -24 -18 -18 -9 -31
-7 -62 9 -50 26 -82 61 -187 203 -48 64 -94 120 -103 123 -24 9 -38 -8 -30
-36 11 -42 142 -208 197 -249 30 -22 54 -45 54 -52 0 -16 -59 -23 -265 -31
l-175 -7 -30 31 c-25 26 -28 34 -18 49 14 23 8 31 -25 31 -62 0 -84 69 -32 98
42 24 37 33 -11 26 -30 -5 -43 -3 -50 7 -14 22 -11 135 4 147 28 23 314 37
782 40 230 2 279 -1 423 -23z m-1304 -24 c3 -4 3 -31 -1 -60 -7 -59 -21 -71
-86 -74 -40 -2 -43 0 -61 41 -15 33 -25 42 -40 40 -23 -3 -24 -13 -11 -85 7
-39 5 -43 -18 -54 -34 -15 -57 2 -57 42 0 16 -5 29 -10 29 -6 0 -19 20 -30 45
-30 71 -75 55 -61 -22 9 -47 6 -55 -28 -72 -19 -11 -26 -10 -39 3 -14 14 -14
18 6 39 27 29 28 41 2 34 -11 -3 -31 3 -45 15 -31 24 -55 17 -55 -16 0 -28
-42 -66 -72 -66 -11 0 -23 11 -30 28 -29 67 -76 84 -100 35 -7 -15 -25 -32
-40 -37 -23 -8 -32 -6 -50 11 -33 31 -58 15 -58 -37 0 -29 -5 -42 -19 -50 -33
-17 -44 -12 -38 18 4 23 -1 31 -39 55 -24 16 -48 26 -54 22 -5 -3 -10 -21 -10
-40 0 -24 -7 -39 -27 -55 -30 -24 -47 -22 -51 6 -4 23 -29 44 -53 44 -11 0
-22 -13 -29 -35 -14 -41 -34 -45 -62 -10 -22 28 -50 32 -68 10 -8 -10 -26 -14
-48 -13 -33 3 -37 0 -45 -30 -8 -25 -15 -32 -31 -30 -14 2 -22 11 -24 29 -2
21 5 29 45 51 115 62 586 159 882 182 193 15 547 20 555 7z m9 -155 c10 -24
-4 -53 -29 -65 -35 -16 -52 -14 -63 7 -11 21 -6 32 29 55 30 21 56 22 63 3z
m-709 -22 c10 -26 7 -31 -24 -44 -54 -22 -84 12 -38 44 29 20 54 20 62 0z
m187 -20 c11 -14 10 -19 -10 -35 -29 -23 -60 -24 -68 -2 -4 10 2 23 16 35 28
22 45 23 62 2z m179 -13 c13 -25 13 -27 -6 -45 -21 -21 -61 -20 -73 2 -11 21
-5 34 24 50 29 16 43 15 55 -7z m2090 -18 c-1 -23 -17 -51 -60 -103 -117 -142
-274 -264 -468 -363 -90 -46 -327 -130 -469 -166 -173 -44 -603 -76 -820 -61
-238 17 -384 42 -602 102 -152 41 -170 49 -323 135 -90 51 -98 57 -104 91 -8
45 -31 92 -45 92 -16 0 -23 -31 -10 -52 6 -10 9 -23 6 -29 -11 -17 -102 41
-182 117 -101 95 -95 103 54 81 59 -9 202 -23 318 -32 116 -8 262 -20 325 -26
68 -6 271 -10 500 -8 212 2 395 -1 408 -5 16 -5 29 -3 40 8 13 11 60 18 187
25 213 13 433 38 506 57 30 8 87 14 125 14 39 0 75 5 80 10 6 6 89 26 185 45
96 19 208 45 249 59 92 30 100 30 100 9z m-1900 -12 c13 -25 -13 -53 -44 -49
-27 4 -33 38 -10 55 25 18 42 16 54 -6z m-870 -25 c0 -19 -17 -29 -37 -22 -12
5 -13 9 -3 21 16 19 40 19 40 1z m170 -5 c0 -19 -18 -31 -46 -31 -20 0 -17 27
4 39 26 16 42 13 42 -8z m-335 -1 c3 -6 -1 -13 -10 -16 -19 -8 -30 0 -20 15 8
14 22 14 30 1z m523 -18 c2 -12 -1 -22 -6 -22 -6 0 -16 -2 -24 -5 -7 -3 -20
-1 -28 4 -12 8 -11 13 5 31 23 26 49 22 53 -8z m670 -10 c2 -23 -1 -32 -12
-32 -19 0 -40 36 -32 57 11 27 41 10 44 -25z m-488 12 c11 -13 10 -19 -7 -36
-25 -24 -53 -18 -53 11 0 11 8 25 18 30 23 14 27 13 42 -5z m198 -16 c21 -21
13 -42 -23 -67 -29 -19 -38 -21 -50 -11 -29 24 -11 66 35 83 23 8 25 8 38 -5z
m-680 -36 c2 -7 -6 -12 -17 -12 -21 0 -27 11 -14 24 9 9 26 2 31 -12z m892
-14 c20 -36 3 -56 -36 -42 -33 11 -49 35 -41 58 11 27 58 17 77 -16z m-712 -5
c2 -8 -6 -13 -22 -13 -25 0 -33 10 -19 24 10 10 36 3 41 -11z m932 2 c19 -23
4 -45 -29 -45 -36 0 -46 13 -31 40 13 24 42 26 60 5z m-746 -10 c4 -10 -1 -15
-14 -15 -11 0 -20 7 -20 15 0 8 6 15 14 15 8 0 16 -7 20 -15z m391 -25 c-3 -5
-10 -10 -16 -10 -5 0 -9 5 -9 10 0 6 7 10 16 10 8 0 12 -4 9 -10z"/>
<path d="M3987 10605 c-5 -12 18 -113 29 -124 2 -2 10 2 19 9 17 14 20 66 5
104 -10 29 -44 35 -53 11z"/>
<path d="M4166 10608 c-3 -7 -7 -35 -10 -61 -7 -62 1 -99 22 -95 35 7 40 168
6 168 -8 0 -16 -6 -18 -12z"/>
<path d="M3833 10595 c-13 -34 18 -142 37 -130 13 8 23 90 16 120 -7 28 -43
35 -53 10z"/>
<path d="M4304 10588 c-10 -33 -7 -114 6 -138 22 -42 35 -16 35 71 0 70 -3 84
-17 87 -10 2 -19 -6 -24 -20z"/>
<path d="M3654 10548 c-19 -31 -3 -118 22 -118 17 0 29 66 18 98 -10 30 -29
39 -40 20z"/>
<path d="M4446 10535 c-17 -47 9 -124 34 -99 18 17 9 108 -11 112 -9 2 -19 -4
-23 -13z"/>
<path d="M4601 10536 c-21 -25 16 -146 44 -146 30 0 29 89 -1 138 -17 26 -27
28 -43 8z"/>
<path d="M4794 10515 c-6 -14 22 -200 32 -217 3 -4 12 -8 20 -8 11 0 14 18 14
91 0 86 -9 125 -34 141 -17 12 -26 9 -32 -7z"/>
<path d="M3497 10503 c-10 -10 -8 -88 3 -117 5 -14 16 -26 25 -26 12 0 15 13
15 63 0 69 -19 104 -43 80z"/>
<path d="M3357 10483 c-12 -12 -7 -79 7 -98 13 -18 14 -18 25 3 27 50 1 128
-32 95z"/>
<path d="M4950 10445 c-9 -11 -10 -37 -6 -92 9 -96 23 -143 43 -143 13 0 14
16 8 118 -4 64 -9 120 -12 125 -7 11 -19 8 -33 -8z"/>
<path d="M3197 10414 c-13 -13 -7 -90 7 -110 14 -19 15 -19 22 1 15 37 10 109
-6 113 -9 1 -19 0 -23 -4z"/>
<path d="M3019 10337 c-19 -42 23 -103 46 -66 11 17 -4 77 -21 83 -9 3 -18 -3
-25 -17z"/>
<path d="M5064 10335 c-8 -32 4 -125 18 -142 6 -7 17 -13 24 -13 15 0 18 86 5
145 -8 39 -38 46 -47 10z"/>
<path d="M5187 10323 c-13 -12 -7 -123 7 -158 9 -20 22 -35 31 -35 15 0 16 10
10 88 -8 96 -24 130 -48 105z"/>
<path d="M2880 10250 c0 -19 5 -30 14 -30 20 0 29 16 21 40 -10 32 -35 25 -35
-10z"/>
<path d="M5356 10225 c-11 -67 14 -215 34 -215 11 0 14 218 4 244 -12 31 -32
16 -38 -29z"/>
<path d="M2750 10190 c0 -13 5 -20 13 -17 6 2 12 10 12 17 0 7 -6 15 -12 18
-8 2 -13 -5 -13 -18z"/>
<path d="M5497 10051 c-6 -98 5 -161 29 -161 23 0 16 243 -7 248 -13 2 -17
-12 -22 -87z"/>
<path d="M2425 10100 c-9 -15 14 -40 36 -40 24 0 24 12 1 33 -22 20 -28 21
-37 7z"/>
<path d="M2250 10062 c0 -12 28 -48 33 -42 8 8 -11 50 -23 50 -5 0 -10 -4 -10
-8z"/>
<path d="M2060 10011 c0 -5 7 -12 16 -15 24 -9 28 -7 14 9 -14 17 -30 20 -30
6z"/>
<path d="M5620 9898 c0 -13 5 -30 10 -38 7 -11 10 -5 10 23 0 20 -4 37 -10 37
-5 0 -10 -10 -10 -22z"/>
<path d="M1780 6505 c-32 -39 173 -295 237 -295 10 0 1 16 -25 48 -22 26 -64
86 -92 132 -52 85 -87 130 -101 130 -3 0 -12 -7 -19 -15z"/>
<path d="M3199 6221 c-18 -15 -21 -22 -13 -31 15 -15 54 4 54 25 0 23 -17 26
-41 6z"/>
<path d="M3049 6188 c-6 -24 -20 -60 -30 -80 -22 -43 -25 -78 -6 -78 24 0 100
158 90 188 -3 6 -13 12 -23 12 -14 0 -22 -12 -31 -42z"/>
<path d="M2844 6179 c-10 -11 -30 -42 -44 -67 -28 -52 -58 -72 -112 -72 -43 0
-53 11 -53 65 0 68 -25 49 -85 -65 -57 -108 -79 -130 -132 -130 -34 0 -36 16
-9 68 10 20 24 54 31 76 10 32 10 40 -3 54 -22 21 -40 4 -56 -50 -16 -53 -45
-111 -66 -132 -19 -18 -70 -22 -80 -5 -4 6 5 37 20 70 22 49 24 63 14 75 -23
28 -51 12 -65 -36 -23 -77 -56 -125 -88 -128 -46 -6 -51 10 -27 76 18 48 20
64 12 81 -21 38 -40 23 -60 -47 -6 -23 -27 -74 -46 -114 -19 -39 -32 -75 -29
-80 6 -10 34 -11 34 0 1 4 9 17 20 30 16 19 25 22 55 16 34 -6 36 -9 31 -35
-3 -16 -9 -42 -12 -59 -7 -34 8 -40 41 -16 14 9 68 15 170 19 137 5 215 18
215 36 0 4 -5 12 -11 18 -9 9 -8 18 5 38 20 30 46 42 115 51 43 6 51 4 63 -15
21 -33 35 -25 70 42 23 44 42 66 65 77 22 10 31 20 27 30 -9 21 -8 29 13 82
21 56 9 82 -23 47z m-104 -178 c0 -6 -10 -21 -22 -35 -19 -20 -34 -25 -83 -28
-68 -3 -81 11 -45 50 17 18 32 22 85 22 36 0 65 -4 65 -9z m-472 -127 c26 -7
29 -30 5 -56 -27 -30 -93 -21 -93 13 0 18 35 49 55 49 5 0 20 -3 33 -6z m182
-14 c0 -33 -35 -60 -80 -60 -31 0 -40 4 -40 18 0 36 36 61 88 62 25 0 32 -4
32 -20z"/>
<path d="M1877 6052 c-13 -20 -67 -177 -67 -194 0 -10 6 -18 14 -18 15 0 98
175 94 199 -4 17 -33 27 -41 13z"/>
<path d="M1711 6017 c-21 -56 -34 -108 -27 -114 21 -22 85 89 72 124 -8 21
-36 15 -45 -10z"/>
<path d="M564 5996 c-7 -19 13 -56 31 -56 23 0 28 19 11 45 -18 28 -34 32 -42
11z"/>
<path d="M2230 5710 c0 -13 40 -13 60 0 11 7 5 10 -22 10 -21 0 -38 -4 -38
-10z"/>
<path d="M5924 10764 c-7 -27 1 -122 11 -132 19 -20 43 83 31 132 -8 34 -34
33 -42 0z"/>
<path d="M6017 10779 c-16 -9 -17 -22 -11 -137 11 -189 15 -426 14 -822 -1
-323 2 -381 26 -508 3 -14 9 -20 16 -16 8 5 9 45 3 138 -10 175 -10 178 2 276
6 52 7 108 2 145 -5 33 -12 255 -15 493 -4 238 -10 434 -13 437 -4 2 -14 -1
-24 -6z"/>
<path d="M6651 10167 c-9 -23 3 -180 15 -198 3 -5 10 -7 15 -4 10 7 13 184 3
209 -9 23 -23 20 -33 -7z"/>
<path d="M6456 10043 c-3 -16 0 -45 8 -66 l13 -39 7 48 c3 26 6 55 6 65 0 29
-28 22 -34 -8z"/>
<path d="M6050 8595 c0 -8 5 -15 10 -15 6 0 10 7 10 15 0 8 -4 15 -10 15 -5 0
-10 -7 -10 -15z"/>
<path d="M5685 7748 c-67 -43 -95 -58 -110 -58 -6 0 -32 -15 -56 -34 -24 -18
-61 -39 -82 -46 -21 -6 -57 -28 -80 -48 -24 -21 -69 -50 -101 -67 -33 -16 -71
-43 -85 -59 -14 -17 -63 -66 -107 -110 -80 -80 -134 -152 -134 -180 0 -7 -19
-36 -43 -62 -58 -66 -77 -95 -77 -118 0 -32 64 36 97 103 15 30 47 76 71 102
24 26 49 55 56 64 17 24 36 11 36 -26 0 -19 -12 -42 -33 -66 -19 -21 -42 -62
-53 -92 -13 -36 -26 -56 -41 -62 -17 -6 -23 -17 -23 -39 0 -17 -9 -49 -19 -71
-11 -22 -23 -66 -27 -97 -5 -47 -12 -62 -37 -83 l-30 -25 23 -32 c21 -29 22
-36 13 -79 -13 -54 -8 -73 18 -73 28 0 24 -36 -6 -56 -32 -21 -32 -31 5 -52
37 -21 70 -94 70 -155 0 -37 -5 -48 -25 -61 -14 -9 -25 -26 -25 -37 0 -18 4
-20 33 -15 42 8 49 2 82 -71 15 -34 36 -70 46 -79 23 -21 25 -54 3 -54 -20 0
-43 28 -44 51 0 9 -7 22 -15 29 -8 7 -15 22 -15 33 0 15 -3 18 -10 11 -12 -12
3 -56 28 -86 10 -12 13 -32 9 -63 -4 -41 -2 -48 18 -57 13 -6 31 -27 40 -48 9
-21 37 -57 61 -81 24 -24 44 -51 44 -61 0 -11 11 -23 27 -29 16 -6 35 -17 44
-25 15 -13 17 -13 22 6 9 34 42 23 96 -34 52 -56 63 -82 36 -92 -22 -9 -18
-30 7 -48 25 -18 78 -22 78 -6 0 19 46 10 88 -17 45 -29 52 -46 25 -61 -16 -9
-16 -12 0 -36 12 -18 26 -26 46 -26 16 0 38 -3 48 -7 16 -6 16 -5 4 11 -10 11
-11 20 -4 27 13 13 103 -23 128 -51 18 -20 13 -40 -11 -40 -11 0 -13 -6 -8
-22 10 -35 24 -48 51 -48 14 0 47 -11 75 -25 27 -14 56 -25 64 -25 26 0 4 21
-42 42 -52 22 -59 48 -14 48 71 0 140 -53 119 -92 -11 -21 -3 -58 13 -58 6 0
22 12 35 26 22 24 30 26 73 21 75 -9 130 -49 130 -94 0 -18 -5 -23 -27 -23
-16 0 -43 9 -61 20 -32 20 -72 27 -72 13 0 -5 26 -21 58 -38 70 -37 75 -61 20
-88 -21 -10 -38 -25 -38 -33 0 -20 -33 -17 -85 7 -58 27 -88 64 -75 89 22 42
-3 56 -35 20 -22 -24 -38 -25 -71 -3 -15 9 -44 18 -66 19 -44 2 -58 15 -58 56
0 36 -10 58 -25 58 -16 0 -48 -48 -40 -60 11 -19 -21 -21 -61 -4 -54 22 -73
41 -66 66 3 13 -1 24 -12 30 -13 7 -16 17 -12 34 8 31 -9 64 -33 64 -10 0 -21
-9 -24 -20 -4 -14 -10 -18 -22 -13 -16 6 -16 4 0 -21 13 -19 15 -30 8 -37 -24
-24 -156 67 -152 105 1 11 -1 29 -5 38 -4 9 -3 25 3 36 6 11 7 22 4 26 -14 14
-40 5 -53 -19 -19 -36 -44 -31 -80 15 -18 22 -45 47 -60 55 -24 13 -28 22 -35
80 -3 36 -11 65 -16 65 -5 0 -12 0 -16 0 -5 0 -8 -10 -8 -23 0 -41 -38 -26
-93 37 -51 58 -51 58 -49 122 2 53 -1 67 -19 85 l-22 21 -12 -21 c-9 -18 -14
-20 -26 -10 -16 13 -19 39 -4 39 18 0 11 19 -27 71 -28 40 -38 63 -41 105 -3
38 -9 54 -18 54 -26 0 -54 104 -61 225 -11 200 -6 369 12 430 21 71 30 125 21
125 -12 0 -65 -125 -75 -178 -17 -83 -14 -378 5 -459 17 -76 69 -238 84 -265
6 -10 10 -22 10 -27 0 -24 64 -143 100 -187 22 -27 40 -52 40 -56 0 -4 20 -35
45 -70 55 -79 160 -187 246 -255 37 -29 74 -64 83 -78 30 -45 157 -131 220
-148 32 -9 75 -28 95 -41 20 -14 57 -32 82 -39 24 -8 76 -32 114 -55 38 -23
75 -42 82 -42 7 0 21 -4 31 -9 20 -10 41 -19 147 -61 130 -52 341 -157 433
-217 147 -95 271 -228 333 -357 30 -63 59 -93 78 -82 9 6 33 -19 45 -44 3 -8
15 -28 25 -45 20 -31 29 -101 11 -90 -5 3 -10 19 -10 35 0 16 -4 32 -10 35 -5
3 -10 13 -10 22 0 15 -27 42 -42 43 -11 0 -10 -34 1 -45 5 -6 15 -38 22 -72
10 -50 10 -86 0 -185 -13 -130 -15 -136 -56 -263 -72 -221 -155 -364 -285
-490 -46 -44 -121 -118 -169 -165 -47 -47 -110 -105 -139 -129 -53 -44 -79
-78 -67 -89 6 -7 13 -3 68 41 23 18 43 26 54 23 18 -6 63 -67 63 -85 0 -5 -30
-32 -66 -60 -50 -38 -75 -51 -100 -51 -31 0 -34 -3 -34 -29 0 -17 11 -42 25
-59 14 -17 25 -41 25 -55 0 -60 42 -36 275 158 205 170 378 355 497 531 46 67
134 233 169 319 49 118 79 301 79 477 0 154 -24 234 -128 438 -155 300 -321
478 -587 627 -36 21 -280 141 -330 163 -11 5 -55 25 -98 45 -43 19 -80 35 -82
35 -3 0 -35 14 -72 31 -238 107 -477 245 -536 307 -18 19 -60 61 -94 94 -34
33 -67 73 -73 88 -7 16 -23 36 -36 44 -30 20 -98 136 -125 212 -70 200 -63
463 21 689 59 160 119 261 206 347 83 81 290 228 357 253 67 25 119 90 87 110
-5 3 -29 -5 -53 -19 -50 -30 -75 -33 -83 -11 -7 18 13 45 32 45 21 0 94 48
101 66 3 8 1 20 -6 27 -8 8 -30 1 -83 -26 -81 -42 -84 -42 -102 -24 -32 32
-29 58 9 97 20 21 56 46 78 55 93 39 107 46 107 54 0 39 -156 -20 -206 -77
-30 -34 -34 -36 -49 -21 -36 36 -12 57 163 144 86 43 93 48 90 73 -4 38 -25
38 -83 0z m-227 -256 c2 -13 -5 -33 -15 -44 -30 -34 -135 -99 -149 -94 -19 7
-17 66 1 91 27 34 98 74 130 72 23 -2 31 -7 33 -25z m60 -64 c19 -19 14 -59
-10 -85 l-21 -23 21 0 c59 0 -5 -111 -70 -122 -53 -10 -53 16 -1 66 56 54 52
58 -14 16 -55 -35 -64 -36 -87 -11 -25 28 -13 52 40 80 25 14 63 40 83 58 41
37 43 37 59 21z m-268 -114 c0 -23 -39 -74 -56 -74 -28 0 -27 31 2 61 31 32
54 38 54 13z m68 -66 c22 -22 13 -43 -40 -95 -65 -63 -97 -81 -109 -62 -14 22
-11 28 25 62 18 18 46 49 61 70 29 39 43 45 63 25z m8 -133 c8 -19 -11 -42
-49 -62 -25 -12 -31 -13 -38 -1 -14 21 -11 26 28 53 44 29 52 30 59 10z m-170
-87 c-12 -45 -65 -118 -86 -118 -11 0 -20 7 -20 16 0 28 52 122 74 132 27 12
40 0 32 -30z m32 -85 c2 -23 -5 -40 -26 -64 -29 -32 -52 -33 -52 -2 0 22 53
104 65 100 6 -2 11 -17 13 -34z m-143 -113 c4 -11 0 -29 -9 -42 -15 -22 -22
-68 -10 -68 3 0 14 10 24 23 14 16 22 19 30 11 16 -16 -36 -164 -57 -164 -13
0 -14 10 -8 56 5 40 3 54 -4 50 -6 -4 -11 -16 -11 -27 0 -22 -13 -25 -28 -6
-10 11 3 67 39 165 11 27 26 28 34 2z m-80 -231 c9 -13 -3 -99 -14 -99 -10 0
-33 89 -26 101 8 12 32 11 40 -2z m13 -257 c2 -23 -1 -32 -11 -32 -16 0 -32
45 -21 61 11 19 29 3 32 -29z m164 -544 c92 -107 104 -131 68 -141 -36 -9
-140 118 -140 172 0 17 4 31 9 31 5 0 33 -28 63 -62z m1272 -848 c52 -19 72
-90 26 -90 -21 0 -27 -14 -10 -25 18 -11 10 -50 -17 -83 l-28 -33 -60 21 c-32
11 -69 30 -82 41 l-22 22 25 49 c15 29 35 53 49 58 14 5 25 15 25 23 0 36 31
41 94 17z m244 -133 c26 -24 29 -47 6 -47 -12 0 -15 -6 -10 -27 4 -15 3 -29
-3 -33 -8 -4 -7 -16 1 -37 14 -37 7 -57 -27 -79 -24 -16 -26 -15 -79 21 -83
57 -120 99 -108 122 21 39 47 54 76 43 41 -15 48 -12 26 10 -29 29 -25 49 13
65 35 15 54 8 105 -38z m160 -137 c14 -15 20 -36 20 -75 0 -30 -4 -55 -9 -55
-6 0 -9 -15 -7 -32 3 -28 -1 -34 -20 -36 -18 -3 -21 -7 -12 -17 8 -9 7 -17 -5
-29 -9 -9 -20 -16 -25 -16 -15 0 -83 75 -97 108 -12 29 -12 36 4 62 24 41 49
47 79 19 18 -17 27 -20 35 -12 15 15 3 33 -21 33 -29 0 -35 32 -10 52 29 23
45 23 68 -2z m175 -197 c4 -2 7 -28 7 -57 0 -45 -3 -54 -20 -59 -18 -5 -19 -7
-5 -34 19 -35 19 -47 0 -63 -8 -7 -15 -21 -15 -31 0 -11 -6 -19 -13 -19 -26 0
-127 124 -127 155 0 27 40 65 67 65 17 0 24 5 22 18 -4 40 0 43 39 36 20 -4
40 -9 45 -11z m97 -243 c0 -13 -5 -18 -15 -14 -8 4 -15 12 -15 20 0 8 7 14 15
14 8 0 15 -9 15 -20z m-30 -72 c15 -66 10 -122 -10 -126 -10 -2 -25 17 -43 53
-32 65 -32 68 -11 100 28 42 51 32 64 -27z m108 -80 c17 -17 15 -65 -4 -76
-14 -8 -15 -14 -5 -44 17 -52 16 -104 -3 -132 -27 -42 -46 -33 -46 19 0 33 -5
50 -20 62 -24 21 -26 49 -5 57 8 3 15 15 15 26 0 13 7 20 20 20 17 0 20 7 20
40 0 41 7 49 28 28z m-159 -152 c17 -20 41 -106 41 -148 0 -28 -5 -40 -21 -49
l-21 -11 21 -22 c18 -19 21 -35 21 -109 0 -85 -1 -88 -35 -126 -40 -44 -41
-47 -19 -68 17 -18 13 -81 -8 -138 -14 -37 -25 -45 -61 -45 l-28 0 22 -29 c17
-23 19 -36 14 -75 -10 -66 -50 -96 -128 -96 -62 0 -68 -7 -37 -47 33 -43 24
-89 -28 -145 -32 -35 -81 -39 -89 -8 -5 18 -12 20 -47 17 -37 -3 -41 -7 -46
-35 -4 -22 -17 -40 -47 -61 -24 -17 -43 -35 -43 -40 0 -5 -9 -11 -20 -14 -32
-8 -70 31 -77 79 -5 40 -4 43 38 72 24 16 83 71 131 121 47 50 98 95 112 101
15 6 28 20 32 37 4 15 24 47 45 71 21 24 41 57 44 73 4 16 20 39 36 51 21 16
29 30 29 53 0 17 16 64 36 105 19 41 44 109 54 151 10 42 26 93 35 112 13 29
16 58 13 137 -3 100 4 119 31 86z m181 -199 c0 -18 -7 -41 -15 -51 -9 -12 -15
-42 -15 -76 0 -61 -14 -87 -37 -69 -18 15 -17 140 1 183 14 34 44 59 58 50 5
-3 8 -20 8 -37z m-50 -300 c0 -18 -4 -37 -8 -42 -5 -6 -14 -29 -21 -52 -14
-50 -27 -55 -36 -14 -8 36 8 96 31 122 25 27 34 23 34 -14z m-513 -679 c5 -7
7 -24 4 -37 -12 -46 -151 -98 -151 -56 0 8 18 29 40 46 22 18 40 38 40 46 0
17 54 17 67 1z m-183 -154 c12 -31 5 -42 -50 -88 -61 -50 -97 -58 -114 -25 -7
11 -10 22 -8 23 2 1 19 12 38 24 19 11 48 34 64 51 33 34 60 40 70 15z"/>
<path d="M5381 7467 c-27 -14 -40 -37 -19 -37 19 1 51 27 47 39 -3 7 -12 6
-28 -2z"/>
<path d="M6364 4885 c26 -19 42 -19 26 0 -7 8 -20 15 -29 15 -13 -1 -13 -3 3
-15z"/>
<path d="M6750 4500 c0 -5 5 -10 11 -10 5 0 7 5 4 10 -3 6 -8 10 -11 10 -2 0
-4 -4 -4 -10z"/>
<path d="M6890 4357 c0 -8 8 -22 19 -31 16 -15 19 -15 24 -2 6 16 -16 46 -34
46 -5 0 -9 -6 -9 -13z"/>
<path d="M6680 2888 c-23 -26 -27 -46 -4 -28 16 14 38 50 30 50 -3 0 -14 -10
-26 -22z"/>
<path d="M5690 7541 c-19 -9 -48 -24 -65 -32 -29 -14 -48 -59 -25 -59 14 0 88
48 125 82 35 32 18 37 -35 9z"/>
<path d="M4790 6930 c0 -5 5 -10 10 -10 6 0 10 5 10 10 0 6 -4 10 -10 10 -5 0
-10 -4 -10 -10z"/>
<path d="M5907 6826 c-6 -15 1 -26 15 -26 4 0 8 9 8 20 0 23 -15 27 -23 6z"/>
<path d="M4751 6804 c0 -11 3 -14 6 -6 3 7 2 16 -1 19 -3 4 -6 -2 -5 -13z"/>
<path d="M6056 6393 c-12 -12 -6 -33 9 -33 8 0 15 6 15 14 0 17 -14 28 -24 19z"/>
<path d="M4860 6256 c0 -14 5 -26 10 -26 6 0 10 9 10 19 0 11 -4 23 -10 26 -6
4 -10 -5 -10 -19z"/>
<path d="M6044 5688 c-13 -20 -8 -171 6 -198 l13 -24 9 24 c13 34 6 202 -9
207 -6 2 -15 -2 -19 -9z"/>
<path d="M4980 5620 c0 -19 32 -60 46 -60 21 0 17 24 -9 48 -25 24 -37 28 -37
12z"/>
<path d="M6050 5369 c0 -11 5 -17 10 -14 6 3 10 13 10 21 0 8 -4 14 -10 14 -5
0 -10 -9 -10 -21z"/>
<path d="M5390 5274 c0 -9 32 -33 44 -34 5 0 1 9 -9 20 -18 20 -35 26 -35 14z"/>
<path d="M5630 5130 c0 -5 7 -10 16 -10 8 0 12 5 9 10 -3 6 -10 10 -16 10 -5
0 -9 -4 -9 -10z"/>
<path d="M5853 5009 c14 -8 22 -8 30 0 8 8 3 11 -18 11 -26 -1 -28 -2 -12 -11z"/>
<path d="M6098 4893 c7 -3 16 -2 19 1 4 3 -2 6 -13 5 -11 0 -14 -3 -6 -6z"/>
<path d="M5884 4832 c-12 -8 -13 -11 -17 -427 -2 -176 0 -289 7 -305 6 -15 11
-169 14 -380 2 -195 5 -526 8 -735 2 -209 6 -558 8 -775 2 -235 8 -417 15
-449 6 -29 11 -85 11 -123 0 -80 9 -102 50 -123 42 -22 74 -19 109 11 l30 25
5 207 c3 114 10 398 15 632 6 234 13 684 15 1000 3 316 9 622 14 680 5 58 9
130 9 160 0 30 4 138 7 240 6 144 4 190 -6 209 -27 50 -117 79 -136 45 -7 -13
-11 -9 -16 19 -4 19 -13 38 -21 41 -25 9 -37 -30 -30 -97 10 -90 37 -117 50
-51 l6 37 21 -34 c18 -30 19 -39 9 -77 -15 -59 -14 -114 4 -140 19 -26 4 -65
-20 -56 -11 5 -15 -2 -15 -25 0 -25 4 -31 18 -29 11 2 17 -3 16 -14 -3 -62 -5
-67 -26 -70 -14 -2 -25 -13 -29 -28 -9 -34 -11 -482 -1 -495 4 -5 16 -10 27
-10 28 0 32 -39 6 -62 -28 -24 -26 -47 4 -61 19 -9 25 -19 25 -44 0 -18 -5
-40 -10 -48 -8 -12 -10 -9 -10 13 0 20 -5 27 -19 27 -16 0 -20 -9 -25 -52 -17
-168 -15 -388 4 -388 4 0 13 74 20 165 7 91 17 168 21 171 14 8 22 -64 14
-134 -8 -85 -8 -111 1 -250 l7 -112 -27 -25 c-28 -25 -26 -57 3 -53 14 3 16
-15 15 -172 -3 -240 -19 -537 -34 -583 -9 -30 -9 -47 2 -80 9 -30 13 -99 11
-237 0 -107 -2 -201 -2 -207 -1 -18 -36 -16 -51 2 -9 11 -9 22 0 51 7 20 9 50
5 67 -4 18 -11 64 -16 102 -4 39 -13 93 -19 120 -8 39 -7 67 6 133 11 54 13
86 6 95 -20 26 -23 78 -21 415 1 191 2 367 1 392 -2 149 -14 767 -17 830 -2
41 2 96 8 122 7 33 7 54 0 70 -7 16 -7 28 0 40 8 12 7 24 -3 43 -12 22 -11 32
5 77 l18 51 -26 22 c-19 15 -27 30 -27 53 0 18 5 32 10 32 6 0 10 -9 10 -19 0
-28 17 -35 29 -12 16 28 13 112 -4 141 l-15 25 -6 -22 c-12 -45 -24 -22 -24
46 0 54 5 78 22 108 18 30 23 56 26 138 4 91 2 103 -18 128 -22 27 -36 33 -56
19z"/>
<path d="M6011 2748 c-5 -18 -10 -100 -10 -183 0 -82 0 -167 0 -187 0 -21 3
-38 7 -38 11 0 45 401 36 423 -10 26 -21 20 -33 -15z"/>
<path d="M6241 2658 c-27 -28 -42 -68 -25 -68 10 0 104 83 104 92 0 20 -50 5
-79 -24z"/>
<path d="M5700 2186 c-93 -102 -139 -172 -140 -210 0 -10 -15 -33 -33 -51 -49
-48 -104 -224 -114 -368 -5 -68 -8 -78 -27 -82 -12 -3 -101 -18 -200 -35 -222
-38 -249 -44 -360 -78 -101 -31 -132 -59 -138 -127 l-3 -39 60 -17 c256 -70
572 -149 646 -160 75 -12 76 -13 89 -48 32 -90 140 -312 193 -396 52 -83 116
-153 151 -165 44 -14 80 -56 95 -107 10 -36 16 -43 36 -43 15 0 25 6 25 14 0
23 -47 94 -132 199 -16 19 -41 69 -57 113 -15 43 -42 102 -58 130 -34 56 -45
88 -68 182 -21 90 -20 105 8 97 12 -4 36 -15 52 -25 51 -31 274 -50 429 -38
89 7 157 7 220 -1 135 -16 429 9 606 50 74 18 151 33 170 33 19 1 42 5 50 8 8
4 40 14 71 22 73 21 120 53 143 100 17 36 18 40 3 72 -26 54 -79 81 -182 94
-49 6 -128 20 -175 31 -47 11 -141 31 -210 45 -309 62 -478 100 -576 132 l-80
26 -58 -33 c-76 -44 -131 -45 -207 -3 -51 28 -58 29 -119 21 -36 -4 -89 -13
-119 -19 -29 -5 -57 -10 -62 -10 -4 0 -5 33 -2 73 10 114 82 273 168 364 44
48 72 110 62 137 -4 9 -13 13 -22 10 -20 -8 -19 -1 5 38 25 41 25 58 2 58 -22
0 -61 -41 -87 -92 -20 -39 -40 -54 -50 -38 -3 5 -2 17 3 27 5 10 18 36 29 58
12 27 32 47 58 61 26 13 41 28 43 43 4 24 -13 51 -32 51 -6 0 -54 -47 -106
-104z m-14 -211 c9 -24 -16 -76 -35 -73 -22 4 -26 35 -7 63 19 28 34 32 42 10z
m-108 -98 c3 -29 -3 -47 -22 -72 -23 -30 -25 -39 -19 -94 5 -51 3 -65 -12 -81
-18 -19 -18 -22 0 -75 19 -54 19 -55 -2 -83 -18 -25 -19 -32 -8 -58 7 -16 15
-54 19 -85 6 -44 4 -58 -8 -69 -22 -17 -20 -57 4 -87 15 -20 20 -41 20 -90 0
-52 5 -71 23 -96 41 -55 63 -167 33 -167 -32 0 -126 236 -126 317 0 24 -6 58
-13 76 -19 47 -21 340 -2 442 18 96 44 183 62 210 7 11 13 28 13 38 0 12 6 17
18 15 12 -2 18 -14 20 -41z m316 -411 c33 -27 54 -35 102 -41 74 -8 138 7 169
41 l23 24 143 -36 c161 -41 165 -42 150 -57 -20 -20 -11 -25 27 -15 20 6 46
10 57 10 20 1 227 -34 234 -39 2 -1 -2 -9 -8 -17 -18 -21 -2 -25 60 -14 48 8
74 6 174 -17 64 -14 153 -31 196 -38 81 -11 93 -19 60 -37 -30 -16 -152 -57
-191 -65 -19 -4 -66 -16 -104 -27 -38 -11 -76 -21 -85 -23 -9 -2 -43 -10 -76
-19 -79 -21 -358 -41 -565 -40 -124 1 -210 8 -345 28 -99 15 -198 30 -220 33
-43 6 -76 20 -87 37 -4 6 -8 33 -8 60 l0 49 38 -7 c57 -10 295 -25 523 -32
194 -7 399 6 399 25 0 3 -80 4 -177 3 -191 -4 -450 10 -628 34 -159 22 -155
21 -155 50 0 24 3 25 28 19 91 -23 642 -37 642 -16 0 12 -88 21 -210 21 -118
0 -408 33 -440 50 -21 11 -24 19 -12 36 8 11 121 34 173 34 19 0 41 5 49 10
20 13 18 14 64 -24z m-484 -82 c0 -19 -3 -34 -7 -34 -22 -1 -193 45 -193 51 0
4 21 11 48 14 26 4 65 10 87 14 50 9 65 -1 65 -45z m-319 -18 c19 -8 98 -27
176 -42 l143 -28 5 -36 c3 -19 10 -52 16 -73 6 -22 8 -42 5 -45 -3 -3 -6 2 -6
11 0 18 -10 22 -100 37 -36 6 -139 31 -230 55 -91 24 -182 47 -202 51 -20 3
-45 12 -55 19 -15 11 -8 15 57 29 104 22 155 34 156 35 1 1 17 -5 35 -13z
m-181 -130 c0 -11 -19 -15 -25 -6 -3 5 1 10 9 10 9 0 16 -2 16 -4z m76 -17
c10 -17 -13 -36 -27 -22 -12 12 -4 33 11 33 5 0 12 -5 16 -11z m92 -33 c6 -29
-15 -43 -35 -24 -14 14 -14 20 -3 33 16 19 34 15 38 -9z m68 -42 c-5 -13 -10
-14 -18 -6 -6 6 -8 18 -4 28 5 13 10 14 18 6 6 -6 8 -18 4 -28z m112 11 c9 -8
-21 -45 -36 -45 -33 0 -45 15 -32 40 9 17 17 20 38 15 15 -4 28 -8 30 -10z
m96 -24 c9 -14 -29 -55 -42 -47 -13 8 -16 39 -5 49 9 10 41 9 47 -2z m84 -38
c-2 -22 -8 -27 -23 -25 -27 5 -28 7 -15 31 16 32 42 27 38 -6z m232 -29 c0
-17 -36 -19 -46 -3 -8 14 14 29 33 22 7 -3 13 -11 13 -19z m88 -12 c2 -7 -3
-12 -12 -12 -9 0 -16 7 -16 16 0 17 22 14 28 -4z m115 -9 c-7 -2 -19 -2 -25 0
-7 3 -2 5 12 5 14 0 19 -2 13 -5z m1095 -15 c-5 -15 -58 -24 -58 -10 0 15 12
22 38 22 14 0 22 -5 20 -12z m-123 -17 c3 -5 1 -13 -5 -16 -15 -9 -43 3 -35
15 8 13 32 13 40 1z m-466 -20 c8 -5 9 -11 3 -15 -14 -8 -43 4 -36 15 7 11 15
11 33 0z m139 -8 c2 -9 -7 -13 -27 -13 -30 0 -39 9 -24 24 11 10 46 3 51 -11z
m116 8 c7 -11 -22 -23 -35 -15 -5 3 -9 9 -9 15 0 12 37 12 44 0z m-624 -11 c0
-5 -9 -10 -20 -10 -11 0 -20 5 -20 10 0 6 9 10 20 10 11 0 20 -4 20 -10z m100
0 c0 -5 -9 -10 -20 -10 -11 0 -20 5 -20 10 0 6 9 10 20 10 11 0 20 -4 20 -10z
m113 3 c-7 -2 -19 -2 -25 0 -7 3 -2 5 12 5 14 0 19 -2 13 -5z"/>
<path d="M5703 1443 c-34 -13 -4 -23 72 -23 47 0 85 4 85 9 0 16 -125 27 -157
14z"/>
</g>
</svg>
